<svg width="71" height="71" viewBox="0 0 71 71" fill="none" xmlns="http://www.w3.org/2000/svg">
<g clip-path="url(#clip0_633_13)">
<path d="M63.97 7.52001H62.2V5.99001C62.2 3.24001 59.97 1.01001 57.22 1.01001C54.47 1.01001 52.24 3.24001 52.24 5.99001V7.52001H40.44V5.99001C40.44 3.24001 38.21 1.01001 35.46 1.01001C32.71 1.01001 30.48 3.24001 30.48 5.99001V7.52001H18.68V5.99001C18.68 3.24001 16.45 1.01001 13.7 1.01001C10.95 1.01001 8.72 3.24001 8.72 5.99001V7.52001H6.95C3.67 7.52001 1 10.19 1 13.47V63.16C1 66.44 3.67 69.11 6.95 69.11H63.97C67.25 69.11 69.92 66.44 69.92 63.16V13.47C69.92 10.19 67.25 7.52001 63.97 7.52001ZM55.2 5.98001C55.2 4.87001 56.11 3.96001 57.22 3.96001C58.33 3.96001 59.24 4.87001 59.24 5.98001V15.83C59.24 16.94 58.34 17.85 57.22 17.85C56.1 17.85 55.2 16.94 55.2 15.83V5.98001ZM33.44 5.98001C33.44 4.87001 34.34 3.96001 35.46 3.96001C36.58 3.96001 37.48 4.87001 37.48 5.98001V15.83C37.48 16.94 36.58 17.85 35.46 17.85C34.34 17.85 33.44 16.94 33.44 15.83V5.98001ZM11.69 5.98001C11.69 4.87001 12.6 3.96001 13.71 3.96001C14.82 3.96001 15.73 4.87001 15.73 5.98001V15.83C15.73 16.94 14.83 17.85 13.71 17.85C12.59 17.85 11.69 16.94 11.69 15.83V5.98001Z" stroke="#6791A4" stroke-width="2" stroke-miterlimit="10"/>
<path d="M9.80001 36.81H19.65C20.47 36.81 21.13 36.15 21.13 35.33C21.13 34.51 20.47 33.85 19.65 33.85H9.80001C8.98001 33.85 8.32001 34.51 8.32001 35.33C8.32001 36.15 8.98001 36.81 9.80001 36.81Z" stroke="#6791A4" stroke-miterlimit="10"/>
<path d="M9.80001 58.52H19.65C20.47 58.52 21.13 57.86 21.13 57.04C21.13 56.22 20.47 55.56 19.65 55.56H9.80001C8.98001 55.56 8.32001 56.22 8.32001 57.04C8.32001 57.86 8.98001 58.52 9.80001 58.52Z" stroke="#6791A4" stroke-miterlimit="10"/>
<path d="M9.80001 47.67H19.65C20.47 47.67 21.13 47.01 21.13 46.19C21.13 45.37 20.47 44.71 19.65 44.71H9.80001C8.98001 44.71 8.32001 45.37 8.32001 46.19C8.32001 47.01 8.98001 47.67 9.80001 47.67Z" stroke="#6791A4" stroke-miterlimit="10"/>
<path d="M51.27 36.81H61.13C61.95 36.81 62.61 36.15 62.61 35.33C62.61 34.51 61.95 33.85 61.13 33.85H51.27C50.45 33.85 49.79 34.51 49.79 35.33C49.79 36.15 50.45 36.81 51.27 36.81Z" stroke="#6791A4" stroke-miterlimit="10"/>
<path d="M51.27 58.52H61.13C61.95 58.52 62.61 57.86 62.61 57.04C62.61 56.22 61.95 55.56 61.13 55.56H51.27C50.45 55.56 49.79 56.22 49.79 57.04C49.79 57.86 50.45 58.52 51.27 58.52Z" stroke="#6791A4" stroke-miterlimit="10"/>
<path d="M51.27 47.67H61.13C61.95 47.67 62.61 47.01 62.61 46.19C62.61 45.37 61.95 44.71 61.13 44.71H51.27C50.45 44.71 49.79 45.37 49.79 46.19C49.79 47.01 50.45 47.67 51.27 47.67Z" stroke="#6791A4" stroke-miterlimit="10"/>
<path d="M40.39 55.56H30.53C29.71 55.56 29.05 56.22 29.05 57.04C29.05 57.86 29.71 58.52 30.53 58.52H40.39C41.21 58.52 41.87 57.86 41.87 57.04C41.87 56.22 41.21 55.56 40.39 55.56Z" stroke="#6791A4" stroke-miterlimit="10"/>
<path d="M29.23 48.11C29.23 48.88 29.52 49.08 29.91 49.08V49.21H27.49V49.08H28.04V35.04C28.04 34.4 27.78 34.33 27.36 34.33V34.2L29.1 33.78H29.23V48.1V48.11Z" fill="#6791A4" stroke="#6791A4" stroke-miterlimit="10"/>
<path d="M37.9 37.05C40.48 37.05 43.14 39.08 43.14 43.33C43.14 46.97 40.8 49.41 37.61 49.41C34.13 49.41 32.08 46.68 32.06 43.33C32.04 38.48 35.32 34.43 39.11 32.73V32.86C36.8 34.18 34.88 36.78 34.17 38.85C35.07 37.66 36.48 37.04 37.89 37.04L37.9 37.05ZM41.77 43.33C41.77 39.8 39.77 37.51 37.61 37.51C34.61 37.51 33.42 40.46 33.45 43.33C33.47 45.86 34.64 49.15 37.61 49.15C39.9 49.15 41.77 46.86 41.77 43.33Z" fill="#6791A4" stroke="#6791A4" stroke-miterlimit="10"/>
<path d="M12.7 22.42H13.91V22.48H13.49L13.47 30.05L8.96998 23.49V28.29C8.96998 29.33 9.17998 29.81 9.60998 29.84V29.9H8.39998V29.84H8.81998L8.83998 23.28L8.22998 22.4H8.96998L13.34 28.73V24.02C13.34 22.98 13.13 22.5 12.7 22.47V22.41V22.42Z" fill="#6791A4"/>
<path d="M21.03 26.17C21.03 28.42 19.79 29.98 17.93 29.98C16.07 29.98 14.82 28.39 14.82 26.17C14.82 23.95 16.06 22.36 17.93 22.36C19.8 22.36 21.03 23.92 21.03 26.17ZM20.38 26.17C20.38 24.06 19.31 22.46 17.93 22.46C16.55 22.46 15.47 23.92 15.47 26.17C15.47 28.42 16.54 29.88 17.93 29.88C19.32 29.88 20.38 28.28 20.38 26.17Z" fill="#6791A4"/>
<path d="M27.34 22.42V22.48H26.92L24.39 29.91H24.24L21.37 22.48H21.1V22.42H22.43V22.48C22.24 22.48 22.08 22.58 22.23 22.95L24.56 28.97L26.24 24.03C26.59 22.99 26.5 22.51 26.08 22.48V22.42H27.33H27.34Z" fill="#6791A4"/>
<path d="M28 29.85H28.27V22.48H28V22.42H29.18V22.48C28.99 22.48 28.85 22.58 28.85 22.95V29.38C28.85 29.75 28.99 29.85 29.18 29.85V29.91H28V29.85Z" fill="#6791A4"/>
<path d="M35.04 28.54H35.1V29.92H30.22V29.86H30.49V22.49H30.22V22.43H35.04V23.81H34.98C34.87 23.07 34.68 22.52 33.49 22.52H31.07V26.12H32.34C32.79 26.12 33.33 25.98 33.36 25.38H33.42V26.97H33.36C33.33 26.37 32.79 26.23 32.34 26.23H31.07V29.83H33.57C34.75 29.83 34.95 29.28 35.05 28.54H35.04Z" fill="#6791A4"/>
<path d="M42.85 29.85H43.12V29.91H41.87V29.85C42.07 29.85 42.21 29.75 42.21 29.38L41.89 23.34L39.42 28.48H39.28L36.77 23.27L36.51 28.36C36.47 29.18 36.64 29.82 37.07 29.85V29.91H35.86V29.85H36.28L36.66 23.02L36.37 22.42H37.01L39.59 27.82L42.18 22.42H42.45L42.86 29.85H42.85Z" fill="#6791A4"/>
<path d="M49.39 28.02C49.39 29.13 48.65 29.89 47.09 29.92H44.03V29.86H44.3V22.49H44.03V22.43H46.49C48.02 22.43 48.79 23.2 48.79 24.33C48.79 25.23 48.31 25.91 47.3 26.14C48.72 26.23 49.39 26.97 49.39 28.04V28.02ZM44.87 22.52V26.12H46.49C47.55 26.12 48.12 25.47 48.15 24.32C48.17 23.19 47.63 22.52 46.41 22.52H44.87ZM48.74 28.02C48.72 26.98 48.14 26.22 47.08 26.22H44.86V29.82H47.08C48.22 29.82 48.77 29.06 48.74 28.02Z" fill="#6791A4"/>
<path d="M55.85 29.44H55.91C55.88 29.8 55.61 29.99 55.35 29.99C53.84 29.99 54.65 26.91 52.47 26.91H51.24V29.4C51.24 29.77 51.38 29.87 51.57 29.87V29.93H50.39V29.87H50.66V22.5H50.39V22.44H52.98C54.54 22.47 55.28 23.56 55.28 24.68C55.28 25.72 54.64 26.74 53.28 26.9C54.98 27.09 54.74 29.74 55.59 29.74C55.7 29.74 55.8 29.63 55.84 29.46L55.85 29.44ZM52.99 26.79C54.05 26.79 54.63 25.7 54.65 24.66C54.68 23.62 54.13 22.52 52.99 22.52H51.24V26.79H52.99Z" fill="#6791A4"/>
<path d="M61.56 28.54H61.62V29.92H56.74V29.86H57.01V22.49H56.74V22.43H61.56V23.81H61.5C61.39 23.07 61.2 22.52 60.01 22.52H57.59V26.12H58.86C59.31 26.12 59.85 25.98 59.88 25.38H59.94V26.97H59.88C59.85 26.37 59.31 26.23 58.86 26.23H57.59V29.83H60.09C61.27 29.83 61.47 29.28 61.57 28.54H61.56Z" fill="#6791A4"/>
</g>
<defs>
<clipPath id="clip0_633_13">
<rect width="70.92" height="70.11" fill="white"/>
</clipPath>
</defs>
</svg>
