<svg width="40" height="31" viewBox="0 0 40 31" fill="none" xmlns="http://www.w3.org/2000/svg">
<g clip-path="url(#clip0_627_26)">
<path d="M29.78 4.7L29.24 3.31C28.7 1.92 27.35 1 25.86 1H17.45C15.95 1 14.61 1.92 14.07 3.31L13.53 4.7C12.99 6.09 11.64 7.01 10.15 7.01H4.64001C2.63001 7.01 1.01001 8.64 1.01001 10.64V26.21C1.01001 28.22 2.64001 29.84 4.64001 29.84H34.63C36.64 29.84 38.26 28.21 38.26 26.21V10.64C38.26 8.63 36.63 7.01 34.63 7.01H33.17C31.67 7.01 30.33 6.09 29.79 4.7H29.78Z" stroke="#6791A4" stroke-width="2" stroke-miterlimit="10"/>
<path d="M4.60999 4.46002V6.41002" stroke="#6791A4" stroke-width="2" stroke-miterlimit="10"/>
<path d="M25.2139 26.4475C29.8921 24.5221 32.1237 19.1689 30.1984 14.4906C28.273 9.81242 22.9198 7.58078 18.2415 9.50614C13.5633 11.4315 11.3317 16.7848 13.257 21.463C15.1824 26.1412 20.5357 28.3728 25.2139 26.4475Z" stroke="#6791A4" stroke-width="2" stroke-miterlimit="10"/>
<path d="M27.1399 17.98C27.1399 20.97 24.7199 23.39 21.7299 23.39C18.7399 23.39 16.3199 20.97 16.3199 17.98C16.3199 14.99 18.7399 12.57 21.7299 12.57C24.7199 12.57 27.1399 14.99 27.1399 17.98Z" stroke="#6791A4" stroke-width="2" stroke-miterlimit="10"/>
<path d="M8.96996 10.76H4.45996V12.86H8.96996V10.76Z" stroke="#6791A4" stroke-width="2" stroke-miterlimit="10"/>
<path d="M6.85996 26.09C6.85996 26.75 6.31996 27.29 5.65996 27.29C4.99996 27.29 4.45996 26.75 4.45996 26.09C4.45996 25.43 4.99996 24.89 5.65996 24.89C6.31996 24.89 6.85996 25.43 6.85996 26.09Z" stroke="#6791A4" stroke-width="2" stroke-miterlimit="10"/>
<path d="M18.13 4.29999H25.56" stroke="#6791A4" stroke-width="2" stroke-miterlimit="10"/>
</g>
<defs>
<clipPath id="clip0_627_26">
<rect width="39.26" height="30.84" fill="white"/>
</clipPath>
</defs>
</svg>
