<svg width="53" height="91" viewBox="0 0 53 91" fill="none" xmlns="http://www.w3.org/2000/svg">
<g clip-path="url(#clip0_621_2)">
<path d="M37.75 90.42C37.08 90.42 36.53 89.88 36.53 89.2V69.49C36.53 63.85 31.94 59.26 26.3 59.26C20.66 59.26 16.07 63.85 16.07 69.49V89.08C16.07 89.75 15.52 90.3 14.85 90.3C14.18 90.3 13.63 89.76 13.63 89.08V69.49C13.63 62.51 19.31 56.82 26.3 56.82C33.29 56.82 38.97 62.5 38.97 69.49V89.2C38.97 89.87 38.42 90.42 37.75 90.42Z" fill="#6791A4"/>
<path d="M51.06 90.36H1.22C0.55 90.36 0 89.82 0 89.14V52.27C0 52 0.09 51.73 0.26 51.52L25.48 19.23C25.71 18.93 26.1 18.72 26.45 18.76C26.83 18.76 27.18 18.94 27.41 19.24L52.04 51.54C52.2 51.75 52.29 52.01 52.29 52.28V89.15C52.29 89.82 51.74 90.37 51.07 90.37L51.06 90.36ZM2.44 87.93H49.85V52.69L26.43 21.98L2.44 52.7V87.93Z" fill="#6791A4"/>
<path d="M26.31 49.41C24.01 49.41 22.15 47.54 22.15 45.25C22.15 42.96 24.02 41.09 26.31 41.09C28.6 41.09 30.47 42.96 30.47 45.25C30.47 47.54 28.6 49.41 26.31 49.41ZM26.31 43.52C25.36 43.52 24.58 44.29 24.58 45.25C24.58 46.21 25.35 46.98 26.31 46.98C27.27 46.98 28.04 46.21 28.04 45.25C28.04 44.29 27.27 43.52 26.31 43.52Z" fill="#6791A4"/>
<path d="M26.44 21.2C25.77 21.2 25.22 20.65 25.22 19.98V1.22C25.22 0.55 25.77 0 26.44 0C27.11 0 27.66 0.55 27.66 1.22V19.98C27.66 20.65 27.11 21.2 26.44 21.2Z" fill="#6791A4"/>
<path d="M32.76 8.36999H20.22C19.55 8.36999 19 7.81999 19 7.14999C19 6.47999 19.55 5.92999 20.22 5.92999H32.76C33.43 5.92999 33.98 6.47999 33.98 7.14999C33.98 7.81999 33.43 8.36999 32.76 8.36999Z" fill="#6791A4"/>
</g>
<defs>
<clipPath id="clip0_621_2">
<rect width="52.28" height="90.42" fill="white"/>
</clipPath>
</defs>
</svg>
