<svg width="53" height="69" viewBox="0 0 53 69" fill="none" xmlns="http://www.w3.org/2000/svg">
<g clip-path="url(#clip0_624_8)">
<path d="M46.78 7.04002C45.3 7.04002 43.64 6.92002 41.93 6.69002C39.3 6.33002 36.84 5.75002 35.02 5.04002C32.77 4.16002 31.74 3.20002 31.89 2.11002C32.04 1.02002 33.28 0.360023 35.69 0.110023C37.63 -0.0899775 40.15 2.25306e-05 42.79 0.350023C45.42 0.710023 47.88 1.29002 49.7 2.00002C51.95 2.88002 52.98 3.84002 52.83 4.93002C52.68 6.02002 51.44 6.68002 49.03 6.93002C48.35 7.00002 47.59 7.04002 46.78 7.04002ZM33.64 2.34002C34.17 3.00002 37.19 4.33002 42.16 5.01002C47.13 5.68002 50.4 5.20002 51.08 4.71002C50.55 4.05002 47.53 2.72002 42.56 2.04002C37.59 1.37002 34.32 1.85002 33.64 2.34002Z" fill="#6791A4"/>
<path d="M39.16 38.21C38.66 38.21 38.16 38.18 37.67 38.11C34.97 37.75 32.57 36.51 30.91 34.64C28.96 32.45 28.17 29.54 28.62 26.22L31.86 2.27001C31.92 1.81001 32.35 1.48001 32.82 1.54001C33.28 1.60001 33.61 2.03001 33.55 2.50001L30.31 26.45C29.93 29.26 30.58 31.7 32.19 33.51C33.58 35.08 35.61 36.11 37.91 36.42C39.97 36.7 42.24 36.25 43.96 35.22C46.17 33.9 47.49 31.75 47.88 28.82L51.07 5.27001C51.13 4.80001 51.56 4.47001 52.03 4.54001C52.49 4.60001 52.82 5.03001 52.76 5.50001L49.57 29.05C48.99 33.36 46.67 35.58 44.84 36.68C43.18 37.67 41.18 38.2 39.18 38.2L39.16 38.21Z" fill="#6791A4"/>
<path d="M43.14 60.87C43.14 60.87 43.06 60.87 43.03 60.87L26.36 58.61C25.97 58.56 25.66 58.24 25.63 57.84C25.59 57.44 25.84 57.08 26.22 56.96L34.64 54.27L36.96 37.16C37.02 36.69 37.45 36.37 37.92 36.43C38.38 36.49 38.71 36.92 38.65 37.39L36.33 54.5L43.62 59.32C43.95 59.54 44.09 59.96 43.95 60.33C43.82 60.66 43.5 60.88 43.15 60.88L43.14 60.87ZM30.31 57.42L39.56 58.67L35.27 55.83L30.31 57.42Z" fill="#6791A4"/>
<path d="M4.51004 15.63C4.32004 15.63 4.14004 15.63 3.97004 15.63C1.55004 15.56 0.270037 15 0.0400373 13.92C-0.189963 12.84 0.760037 11.81 2.95004 10.77C4.71004 9.93 7.12004 9.17 9.72004 8.62C12.32 8.07 14.83 7.81 16.78 7.86C19.2 7.93 20.48 8.49 20.71 9.57C20.94 10.65 19.99 11.68 17.8 12.72C16.04 13.56 13.63 14.32 11.03 14.87C8.66004 15.37 6.37004 15.64 4.51004 15.64V15.63ZM1.75004 13.54C2.47004 13.98 5.76004 14.23 10.67 13.2C15.57 12.17 18.5 10.62 18.97 9.92C18.25 9.47 14.95 9.23 10.05 10.26C5.15004 11.29 2.22004 12.84 1.75004 13.54Z" fill="#6791A4"/>
<path d="M15.09 46.15C13.28 46.15 11.53 45.72 10.02 44.89C7.45003 43.48 5.73003 41 5.04003 37.73L0.0700285 14.07C-0.0299715 13.61 0.270029 13.16 0.730029 13.06C1.19003 12.96 1.64003 13.26 1.74003 13.72L6.71003 37.37C7.29003 40.14 8.72003 42.22 10.84 43.39C12.65 44.39 14.97 44.69 17.2 44.22C19.24 43.79 21.22 42.61 22.5 41.06C24.14 39.08 24.66 36.61 24.05 33.72L19.16 10.47C19.06 10.01 19.36 9.56002 19.82 9.46002C20.28 9.37002 20.73 9.66002 20.83 10.12L25.72 33.37C26.62 37.63 25.18 40.49 23.82 42.14C22.28 44 20 45.37 17.56 45.88C16.74 46.05 15.91 46.14 15.1 46.14L15.09 46.15Z" fill="#6791A4"/>
<path d="M13.5901 69.01C13.2601 69.01 12.9601 68.82 12.8201 68.51C12.6501 68.15 12.7601 67.72 13.0801 67.48L20.1101 62.12L16.5601 45.23C16.4601 44.77 16.7601 44.32 17.2201 44.22C17.6801 44.12 18.1301 44.42 18.2301 44.88L21.7801 61.78L30.2701 63.87C30.6501 63.96 30.9201 64.31 30.9201 64.71C30.9201 65.11 30.6301 65.45 30.2501 65.53L13.7901 68.99C13.7301 69 13.6701 69.01 13.6201 69.01H13.5901ZM21.2301 63.4L17.0901 66.56L26.2201 64.64L21.2201 63.41L21.2301 63.4Z" fill="#6791A4"/>
</g>
<defs>
<clipPath id="clip0_624_8">
<rect width="52.84" height="69.01" fill="white"/>
</clipPath>
</defs>
</svg>
