<svg width="87" height="107" viewBox="0 0 87 107" fill="none" xmlns="http://www.w3.org/2000/svg">
<g clip-path="url(#clip0_630_5)">
<path d="M65.52 10.69C65.38 16.9 62.57 25.29 57.13 29.14C54.91 30.72 52.26 31.53 49.17 31.14C49.15 31.14 49.13 31.14 49.11 31.14C48.48 31.05 47.82 30.89 47.36 30.26C47.08 29.89 46.91 29.39 46.75 28.89C46.73 28.84 46.72 28.79 46.7 28.73C46.43 27.83 46.23 26.88 46.1 25.91C48.34 24.47 49.9 21.31 49.9 17.64C49.9 15.73 49.47 13.96 48.75 12.49C48.28 12.87 47.8 13.21 47.26 13.48C44.84 14.67 42.19 14.41 40.56 16.95C39.61 18.42 39.25 20.2 37.24 20.42H37.17C37.79 23.16 39.32 25.33 41.25 26.26C41.25 26.26 41.25 26.27 41.25 26.28C40.64 28.65 39.28 30.62 37.65 31.42C37.4 31.55 37.14 31.65 36.87 31.71C36.71 31.75 36.55 31.78 36.38 31.8C35.5 31.92 34.6 31.75 33.72 31.48C31.19 30.69 28.83 28.96 26.79 26.62C26.01 25.72 25.28 24.74 24.6 23.69C22.63 20.61 21.13 16.93 20.06 13C19.96 12.62 20.41 12.36 20.69 12.63C22.61 14.53 25.86 14.76 28.5 14.62C29.76 14.56 31.02 14.42 32.26 14.2C35.35 13.66 38.37 12.66 41.17 11.24C43.87 9.87 46.14 7.95 48.38 6C49.87 4.7 51.35 3.38 52.95 2.19C55.02 0.640002 57.69 -0.469998 60.18 0.230002C62.5 0.890002 64.17 3.01 64.9 5.31C65.18 6.19 65.34 7.09 65.42 8.01C65.51 8.91 65.52 9.81 65.5 10.71L65.52 10.69Z" fill="#6791A4"/>
<path d="M47.01 2.09002C46.74 2.32002 46.47 2.56002 46.2 2.80002C43.96 4.75002 41.69 6.67002 38.99 8.04002C36.82 9.14002 34.53 9.99002 32.17 10.56C31.72 7.55002 32.68 4.41002 35.08 2.41002C37.31 0.560017 40.22 0.180017 43 0.710017C44.42 0.980017 45.81 1.43002 47.02 2.08002L47.01 2.09002Z" fill="#6791A4"/>
<path d="M43.4 22.14C43.4 22.14 42.65 21.07 40.94 22.76H41.56C41.93 23.79 42.56 23.96 43.47 23.96C45.16 23.96 45.23 22.76 45.23 22.76H45.85C45.85 22.76 44.41 21.11 43.39 22.14H43.4Z" fill="#6791A4"/>
<path d="M43.27 47.12C43.06 47.58 42.94 47.85 42.94 47.85C42.92 47.82 42.91 47.8 42.89 47.77C43.02 47.55 43.14 47.33 43.27 47.12Z" stroke="#6791A4" stroke-width="3" stroke-miterlimit="10"/>
<path d="M53.31 44.98C53.53 44.12 53.69 43.17 53.72 42.11C53.77 43.03 53.65 44 53.31 44.98Z" stroke="#6791A4" stroke-width="3" stroke-miterlimit="10"/>
<path d="M32.49 44.98C32.15 44 32.02 43.03 32.08 42.11C32.12 43.16 32.28 44.12 32.49 44.98Z" stroke="#6791A4" stroke-width="3" stroke-miterlimit="10"/>
<path d="M42.9 47.77C42.9 47.77 42.87 47.82 42.85 47.85C42.85 47.85 42.74 47.58 42.52 47.12C42.65 47.33 42.77 47.55 42.9 47.77Z" stroke="#6791A4" stroke-width="3" stroke-miterlimit="10"/>
<path d="M82.93 94.76C82.61 94.61 82.27 94.5 81.93 94.44H81.91C80.54 94.17 79.03 94.5 77.71 94.98C75.98 95.61 74.43 96.64 73.08 97.88C72.14 98.74 71.21 99.5 70.3 100.16C61.76 106.39 55 104.35 55 104.35C54.72 104.25 54.44 104.16 54.17 104.07C53.53 103.87 52.89 103.69 52.25 103.54C49.28 102.84 46.2 102.68 43.15 102.96C42.37 103.03 41.6 103.13 40.83 103.26C38.22 103.69 35.98 103.75 34.06 103.54C28.27 102.93 25.35 99.95 23.94 97.66C23.14 96.36 21.91 95.72 20.65 95.62C18.86 95.48 17 96.45 16.3 98.19C16.08 98.72 15.98 99.33 16 99.99C16 100.02 16 100.05 16 100.07C16 100.1 16 100.13 16 100.16C15.09 99.5 14.16 98.74 13.22 97.88C11.86 96.64 10.32 95.61 8.59 94.98C7.27 94.5 5.76 94.17 4.39 94.44H4.37C4.03 94.5 3.69 94.61 3.37 94.76C3.51 94.48 3.66 94.2 3.81 93.92C14.9 80.03 25.22 67.76 33.02 59.99C34.53 58.48 35.95 57.15 37.26 56L35.78 49.61C34.06 48.08 33.02 46.5 32.49 44.97C32.27 44.11 32.11 43.15 32.08 42.1C32.06 41.73 32.08 41.36 32.06 40.96C32.03 39.94 32.15 38.91 32.52 37.97C33.09 36.53 33.83 36.03 34.66 36.17C37.52 36.64 41.39 44.64 42.52 47.12C42.73 47.58 42.85 47.85 42.85 47.85C42.87 47.82 42.88 47.79 42.9 47.77C42.91 47.8 42.93 47.83 42.95 47.85C42.95 47.85 43.02 47.68 43.15 47.39C43.18 47.31 43.23 47.22 43.27 47.12C44.47 44.49 48.74 35.68 51.63 36.17C52.17 36.26 52.67 36.69 53.09 37.56C53.58 38.58 53.72 40.35 53.73 41.48C53.73 41.69 53.73 41.9 53.73 42.11C53.69 43.16 53.53 44.12 53.31 44.98C52.79 46.51 51.74 48.09 50.03 49.62L48.15 56.01C48.15 56.01 50.16 57.44 53.3 60.02C53.3 60.02 53.31 60.03 53.32 60.04C60.7 66.11 74.27 78.57 82.48 93.92C82.63 94.2 82.78 94.49 82.93 94.77V94.76Z" stroke="#6791A4" stroke-width="3" stroke-miterlimit="10"/>
<path d="M37.26 56.57H48.14L49.08 53.38H36.21L37.26 56.57Z" stroke="#6791A4" stroke-width="3" stroke-miterlimit="10"/>
<path d="M16.28 98.19C16.28 98.19 15.06 95.25 36.52 64.27" stroke="#6791A4" stroke-width="3" stroke-miterlimit="10"/>
<path d="M27.43 101.28L32.49 84.52" stroke="#6791A4" stroke-width="3" stroke-miterlimit="10"/>
<path d="M55 104.35C55 104.35 55.7 90.18 43.4 59.81" stroke="#6791A4" stroke-width="3" stroke-miterlimit="10"/>
<path d="M73.08 97.88C73.08 97.88 62.44 77.65 51.83 69.45" stroke="#6791A4" stroke-width="3" stroke-miterlimit="10"/>
</g>
<defs>
<clipPath id="clip0_630_5">
<rect width="86.35" height="106.17" fill="white"/>
</clipPath>
</defs>
</svg>
