<svg width="116" height="105" viewBox="0 0 116 105" fill="none" xmlns="http://www.w3.org/2000/svg">
<path d="M115.51 68.0768C115.18 68.5768 114.94 69.0468 114.6 69.4168C114.23 69.8068 113.76 70.1068 113.25 70.5168C112.81 69.7968 112.73 69.1668 113.13 68.4768C113.58 67.7068 114.03 66.9468 114.45 66.1568C114.62 65.8268 114.83 65.4468 114.81 65.1068C114.74 63.5868 114.75 62.0468 114.15 60.6068C114.04 60.3368 113.93 60.0568 113.79 59.7968C113.19 58.7068 112.89 58.6568 111.88 59.4468C111.82 59.4968 111.73 59.5068 111.58 59.5568C111.4 59.3668 111.21 59.1568 111 58.9468C110.1 58.0068 109.42 57.8968 108.3 58.5768C107.8 58.8868 107.32 59.2568 106.9 59.6668C106.17 60.3868 106.19 60.6868 106.59 61.6668C106.79 62.1568 106.9 62.7168 106.92 63.2568C106.95 63.9668 106.85 64.6868 106.81 65.4068C104.76 65.6668 102.92 66.4568 101.27 67.9468C101.14 67.6168 101.06 67.4368 100.99 67.2568C101.78 66.8268 101.91 66.5968 101.72 65.8468C101.47 64.8068 100.89 63.9568 99.99 63.4168C98.88 62.7468 98.98 61.4368 98.34 60.5268C98.2 60.3268 98.39 59.7668 98.58 59.4568C99.45 58.0268 98.85 56.7068 98.35 55.3768C98.28 55.1768 98.18 54.9868 98.05 54.7068C99.58 53.5668 99.2 52.1468 98.48 50.7568C98.08 49.9768 97.57 49.2268 96.99 48.5568C96.05 47.4768 94.6 47.6368 93.72 48.7768C92.73 50.0568 92.81 51.5468 92.84 53.0368C92.84 53.1568 92.89 53.3168 92.97 53.3868C93.82 54.0668 94.67 54.7568 95.56 55.3768C95.73 55.4968 96.13 55.3768 96.39 55.2668C96.7 55.1468 96.96 54.9368 97.39 54.6668C98.12 56.3668 98.73 57.9368 97.53 59.7268C96.88 59.1368 96.25 58.5968 95.65 58.0268C95 57.4068 94.22 57.0368 93.35 57.1368C92.19 57.2768 90.93 57.3468 89.91 57.8568C88.15 58.7368 88.17 59.7768 89.15 60.8868C89.75 61.5668 89.8 62.2168 89.7 62.9768C89.6 63.7368 89.32 63.9668 88.12 64.4568C88.21 64.9368 88.3 65.4268 88.42 66.0668C86.49 67.7468 84.64 69.6368 82.51 71.1468C80.88 72.2968 79.97 74.0468 78.42 75.1968C77.98 75.5268 77.63 75.9568 77.07 76.5268C77.86 74.2168 78.55 72.1768 79.28 70.0468C78.69 69.5768 78.83 68.9168 79.05 68.2668C79.39 67.2768 79.82 66.3068 80.1 65.2968C80.39 64.2368 81.12 63.2668 80.65 62.0268C80.51 61.6668 80.8 61.1468 80.89 60.6968C81 60.6268 81.12 60.5668 81.23 60.4968C81.38 60.7568 81.53 61.0268 81.73 61.3868C81.9 60.9068 82.05 60.4668 82.26 59.8468C81.77 60.0468 81.48 60.1568 81.11 60.3068C80.95 59.4268 81.45 58.8668 81.74 58.2368C82.07 57.5168 82.38 56.7768 82.72 56.0568C83.58 54.2168 84.45 52.3868 85.3 50.5468C85.78 49.5168 86.22 48.4668 86.7 47.4368C86.86 47.0968 87.02 46.7268 87.28 46.4668C88.01 45.7668 88.74 45.0568 89.56 44.4568C90.86 43.5068 92.22 42.6468 93.56 41.7468C95.27 40.6068 96.73 39.2068 97.9 37.5168C98.38 36.8268 98.94 36.1968 99.53 35.4568C100.15 36.2168 100.5 37.0968 101.56 37.2368C101.66 36.4968 101.04 36.3568 100.76 35.9168C100.89 35.6568 101.04 35.3768 101.22 35.0268C100.91 34.7968 100.62 34.5768 100.28 34.3168C100.52 33.6368 100.75 32.9868 100.98 32.3468C101.1 34.0168 101.78 35.1968 103.4 35.9968C103.55 34.4368 104.47 33.2768 104.52 31.8468C104.52 31.6768 104.82 31.4668 105.03 31.3568C105.74 30.9868 106.47 30.6668 107.19 30.3168C107.33 30.2468 107.44 30.1268 107.57 30.0168C106.53 29.0468 106.37 29.0768 105.23 30.2968C104.48 29.2968 103.74 28.3068 102.92 27.2168C103 26.6668 104.12 26.5368 103.84 25.6868C103.67 25.1668 103.51 24.6268 103.21 24.1868C102.93 23.7668 102.47 23.4868 101.89 23.9968C102.22 24.7468 103.13 25.2668 102.7 26.3568C102.43 26.1368 102.2 25.9468 102.09 25.8568C101.72 26.4068 101.35 26.9668 100.98 27.5068C99.76 26.9068 99.59 26.6268 100.07 25.6268C100.69 24.3568 101.45 23.1968 103.06 22.9968C103.37 22.9568 103.66 22.7668 103.93 22.4468C103.68 22.4368 103.41 22.3568 103.18 22.4168C102.86 22.4968 102.57 22.7068 102.25 22.7968C101.53 22.9968 100.8 23.3168 100.11 22.7068C100.05 22.6568 99.88 22.7268 99.61 22.7568C99.79 23.1768 99.95 23.5268 100.13 23.9368C99.59 24.8668 98.84 25.6268 97.87 26.1468C96.85 25.3668 97.89 24.9568 98.06 24.3768C97.74 23.8068 97.42 23.2368 97.02 22.5168C97.56 22.5468 97.92 22.5668 98.15 22.5768C98.18 22.1068 98.2 21.6868 98.23 21.2568C97.97 21.1768 97.7 21.1068 97.5 21.0368C97.16 21.8268 96.85 22.5468 96.53 23.2868C96.66 23.8168 97.21 24.2668 97.03 25.0068C96.3 24.5868 96.4 23.4568 95.39 23.3768C95.19 24.1068 96.18 24.7168 95.38 25.5468C95.11 25.1768 94.82 24.9068 94.67 24.5668C94.36 23.8868 94.11 23.1668 93.85 22.4668C93.7 22.0668 93.47 21.8368 93.07 22.0168C92.98 22.8168 92.89 23.5468 92.83 24.2768C92.83 24.3668 93 24.4668 93.11 24.5768C92.95 25.2868 92.79 25.9968 92.62 26.7868C91.59 25.7068 91.79 24.1768 90.84 23.1768C90.72 23.0568 90.88 22.5568 91.03 22.3168C91.23 22.0168 91.68 21.8468 91.8 21.5368C91.93 21.2168 91.8 20.7868 91.78 20.5268C92.76 20.2868 93.67 20.0668 94.57 19.8468C94.82 19.1368 94.93 18.3868 95.84 18.0468C96.14 18.3168 96.48 18.6168 96.82 18.9068C97.3 19.3268 97.78 19.7568 98.25 20.1768C98 19.6868 97.82 19.1468 97.48 18.7268C96.04 16.9468 95.42 16.9368 94.1 18.7268C93.69 19.2868 93.2 19.4268 92.58 19.4168C91.55 19.4068 91.55 19.4168 90.37 20.0668C90.55 20.3768 90.73 20.6868 90.93 21.0468C90.85 21.1668 90.78 21.3368 90.66 21.4268C89.75 22.0368 89.82 22.7168 90.16 23.7168C90.59 24.9768 91.09 26.1468 91.99 27.1068C92.53 27.6768 93.14 28.2168 93.8 28.6368C94.76 29.2568 94.84 29.2468 94.3 30.3268C93.38 32.1368 92.41 33.9268 91.46 35.7268C91.24 36.1368 90.99 36.5368 90.84 36.9768C90.3 38.5568 89.45 39.9668 88.52 41.3368C88.22 41.7768 87.98 42.2568 87.84 42.7868C88.21 42.3468 88.58 41.8968 89 41.3868C88.85 42.8068 88.65 43.3868 87.88 44.1168C86.03 45.8668 84.73 47.9668 83.79 50.3268C83.64 50.7068 83.43 51.0568 83.13 51.3968C82.44 48.7968 81.44 46.2968 81.65 43.5668C81.78 41.8768 81.81 40.1768 81.91 38.4868C82 37.0068 82.99 36.4168 84.33 37.0168C84.48 37.0868 84.63 37.1568 84.74 37.2068C85.33 36.7268 85.88 36.2768 86.42 35.8168C87.36 35.0268 87.42 34.8368 87.3 33.3368C87.55 33.3168 87.8 33.2968 88.13 33.2768C87.94 32.8168 87.79 32.4468 87.6 32.0068C88.44 31.6768 89.53 31.9168 89.89 30.7368C89.85 30.5868 89.82 30.3268 89.72 30.0968C89.25 29.0668 88.8 28.0368 88.74 26.8668C88.72 26.5668 88.42 26.1268 88.14 26.0168C87.04 25.5468 86.25 24.7668 85.52 23.8668C85.39 23.7068 85.14 23.6568 84.73 23.4368C84.84 23.8768 84.83 24.1568 84.97 24.2968C85.45 24.8268 85.95 25.3568 86.5 25.8168C87.24 26.4368 87.85 27.0768 87.73 28.1668C87.7 28.4368 87.97 28.7768 88.17 29.0268C88.58 29.5468 89.05 30.0268 89.68 30.7468C88.78 30.7868 88.13 30.8168 87.54 30.8368C86.91 29.9168 86.32 29.0668 85.78 28.2768C84.74 28.4668 85.5 29.2968 85.07 29.6468C84.04 28.8768 83.02 28.1068 82.12 27.4268C81.4 27.5268 81.33 28.5568 80.53 28.0268C80.7 27.3168 81.33 26.9968 81.82 26.5768C81.95 26.4668 82.29 26.5568 82.53 26.5968C82.73 26.6268 83.02 26.8368 83.1 26.7668C83.95 26.0468 84.74 26.5468 85.71 27.0368C85.32 25.8468 84.27 25.6668 83.69 24.8668C83.16 25.4868 82.56 25.6968 81.8 25.6368C81.47 25.6168 81.04 25.9468 80.76 26.2168C79.77 27.1868 78.83 28.2068 77.75 29.1568C77.7 27.3468 78.1 25.6168 78.46 23.8868C78.83 22.1168 79.2 20.3368 79.57 18.5068C80.04 18.3968 80.64 18.3168 81.18 18.1068C83.49 17.2168 83.85 15.1068 82.63 13.3768C82.07 12.5768 81.33 11.9368 80.29 11.5268C79.4 12.4068 78.49 13.2868 77.62 14.2068C77.44 14.3968 77.33 14.7368 77.33 15.0068C77.33 16.5368 78.06 17.7968 78.89 19.2968C78.26 22.3368 76.53 25.3868 76.38 28.8368C76.57 28.5768 76.77 28.3068 77.08 27.8968C77.16 29.3768 77.24 30.6368 77.31 31.8968C76.98 32.4668 76.6 33.0068 76.35 33.6068C75.93 34.5768 75.63 35.5868 75.23 36.5568C74.82 37.5468 74.42 38.5668 73.38 39.3068C73.65 38.0868 73.89 36.9768 74.13 35.8868C73.78 36.6968 73.43 37.5068 73.05 38.4068C72.91 38.2068 72.76 38.0668 72.7 37.8868C71.66 34.9768 70.64 32.0668 69.59 29.1568C69.25 28.2068 69.27 27.2868 69.54 26.3068C70.58 22.5468 71.77 18.8468 73.53 15.3468C73.62 15.1568 73.72 14.9468 73.73 14.7468C73.78 13.9968 74.23 13.6968 74.88 13.4268C76.21 12.8768 77.09 11.9068 77.2 10.3668C77.3 8.94681 76.45 8.08681 75.48 7.29681C75.17 7.04681 74.76 7.0468 74.48 7.44681C74.31 7.6868 74.15 7.93681 73.96 8.21681C73.44 7.69681 73.13 7.38681 72.68 6.91681C72.02 8.43681 71.12 9.6668 70.99 11.2268C70.92 12.1568 71.4 12.8968 72.02 13.4668C72.74 14.1268 72.7 14.7468 72.29 15.4868C70.91 17.9868 70.18 20.7468 69.3 23.4368C69.06 24.1868 68.93 24.9768 68.67 26.0768C68.4 25.5368 68.23 25.2868 68.15 25.0068C67.27 21.8668 66.41 18.7268 65.52 15.5968C65.32 14.9068 65.03 14.2468 64.81 13.5568C64.7 13.2268 64.44 12.8668 64.94 12.5668C65.04 12.5068 65.04 12.1668 65 11.9668C64.82 11.1968 64.6 10.4268 64.27 9.67681C64.39 10.4868 64.51 11.3068 64.67 12.3868C63.96 11.2868 63.54 9.3168 63.65 8.1068C64.86 8.1068 65.31 7.73681 65.45 6.54681C65.51 6.00681 65.5 5.44681 65.5 4.89681C65.5 3.77681 65 2.95681 64.04 2.39681C63.75 2.22681 63.46 2.04681 63.17 1.87681C62.08 1.25681 61.45 1.31681 60.54 2.12681C59.56 2.99681 58.6 3.88681 57.97 5.26681C58.48 5.89681 58.96 6.64681 59.58 7.25681C60.75 8.40681 61.49 8.30681 62.52 6.81681C62.79 8.35681 62.99 9.73681 63.28 11.0968C63.57 12.5068 63.95 13.8968 64.29 15.2868C64.62 16.6468 64.92 18.0068 65.27 19.3668C65.63 20.7568 66.03 22.1368 66.41 23.5268C65.59 23.0568 61.04 17.3468 59.15 14.4268C59.29 14.0468 59.59 13.6368 59.53 13.2968C59.47 12.9468 58.98 12.6868 58.82 12.3268C58.5 11.6168 58.27 10.8668 57.95 9.99681C58.97 9.91681 59.16 10.7368 59.65 11.0868C60.19 11.4768 60.72 11.8668 61.23 12.2368C62.43 11.1968 62.52 10.5768 61.55 9.62681C61.09 9.17681 60.45 8.85681 59.83 8.62681C59.28 8.42681 58.76 8.56681 59.15 9.63681C58.59 9.09681 58.28 8.74681 57.92 8.46681C57.68 8.27681 57.36 8.18681 57.08 8.04681C56.99 8.33681 56.9 8.63681 56.82 8.92681C56.8 9.00681 56.8 9.08681 56.78 9.24681C56.37 9.45681 55.93 9.67681 55.25 10.0168C55.45 9.49681 55.57 9.1968 55.69 8.8968C53.94 8.3168 52.63 9.8268 52.85 12.1068C52.71 12.2168 52.55 12.3568 52.39 12.4768C51.96 12.7968 51.94 13.2068 52.27 13.5768C53.05 14.4468 53.76 15.4268 54.95 15.8168C55.53 16.0068 55.91 16.7168 56.66 16.4768C57.04 16.8768 57.34 17.4168 58.12 17.2668C58.13 17.0568 58.14 16.8668 58.15 16.6668C58.16 16.4768 58.17 16.2768 58.2 15.7868C58.69 16.2468 59.04 16.5168 59.31 16.8568C59.84 17.5168 60.31 18.2268 60.81 18.9068C61.31 19.5768 61.81 20.1968 62.63 20.5968C63.23 20.8968 63.67 21.5668 64.12 22.1268C65.03 23.2468 65.94 24.3668 66.77 25.5368C67.23 26.1868 67.66 26.8968 67.87 27.6568C68.47 29.7268 68.88 31.8568 69.49 33.9268C70.06 35.8268 70.79 37.6768 71.46 39.5468C71.49 39.6368 71.62 39.6868 71.81 39.8468C71.24 37.6968 70.04 35.8768 70.11 33.3968C70.41 33.9468 70.6 34.2768 70.77 34.6068C70.94 34.9468 71.1 35.2968 71.22 35.6568C71.57 36.7468 71.94 37.8268 72.24 38.9268C72.55 40.0568 72.51 41.1368 71.81 42.1968C71.35 42.8868 71.09 43.7168 70.82 44.5168C69.02 49.8668 66.93 55.0868 64.5 60.1768C64.06 61.0968 63.66 62.0268 63.21 62.9368C62.97 63.4268 62.7 63.8968 62.34 64.5668C62.2 64.2068 62.07 64.0268 62.08 63.8768C62.25 62.3468 61.77 60.9568 61.25 59.5568C59.7 55.3968 58.15 51.2368 56.6 47.0668C56.5 46.7968 56.43 46.5068 56.38 46.3268C56.76 45.7368 57.1 45.2268 57.52 44.5668C56.71 44.8268 56.54 44.4768 56.48 43.8868C56.65 43.9168 56.79 43.9468 56.94 43.9568C57.78 44.0368 58.09 43.7668 57.88 42.9868C57.69 42.2668 57.35 41.5768 57.04 40.7768C57.67 40.6968 58.25 40.6168 59 40.5168C58.79 40.0368 58.69 39.5668 58.42 39.2468C57.66 38.3268 56.98 37.3768 56.51 36.2768C56.34 35.8868 55.96 35.5968 55.66 35.2468C54.92 35.9868 55.66 36.5068 55.73 37.0668C54.94 37.6268 54.64 36.2968 53.82 36.7068C53.92 37.0868 54.01 37.4668 54.13 37.9368C53.57 38.3268 52.96 38.7768 53.53 39.7168C53.79 39.6868 54.13 39.6468 54.53 39.6068C54.51 40.3868 54.58 41.0568 54.12 41.7368C53.82 42.1768 53.83 42.8368 53.69 43.4468C52.82 43.0768 52.82 41.9868 52.11 41.3968C51.92 41.5768 51.75 41.7468 51.56 41.9368C52.06 42.7368 52.88 43.2868 53.13 44.4868C52.44 44.0868 51.92 43.7968 51.36 43.4668C51.63 44.2968 52.38 45.0268 53.31 45.4168C53.5 45.4968 53.71 45.5568 53.91 45.6268C54.72 45.9168 55.15 46.4468 55.42 47.3168C56.2 49.9068 57.14 52.4568 57.97 55.0368C59.07 58.4568 60.17 61.8768 60.45 65.5168C60.56 66.9068 60.32 68.0268 59.52 69.1868C57.45 72.1768 55.56 75.3068 53.49 78.2968C51.34 81.3968 49.06 84.3968 46.82 87.4268C46.35 88.0568 46.08 88.8768 45.19 89.1368C45.05 89.1768 45 89.4868 44.89 89.6568C44.42 90.4168 43.89 91.1168 43.03 91.5668C43.13 91.0668 43.22 90.6168 43.32 90.1668C42.15 91.0368 41.68 92.4168 40.41 93.3968C40.14 92.6068 39.83 91.9968 39.74 91.3568C38.82 85.1068 37.02 79.0368 35.84 72.8368C35.37 70.3868 34.99 67.9168 34.53 65.4568C34.29 64.1668 33.95 62.8968 33.65 61.6268C33.31 60.1768 32.99 58.7368 33.43 57.2468C33.47 57.1268 33.46 56.9968 33.46 56.8668C33.4 54.1168 34.27 51.5168 34.74 48.8568C35.19 46.3168 35.83 43.8068 36.34 41.2768C36.76 39.2368 37.67 37.4368 38.86 35.7768C40.52 33.4568 41.95 31.0168 42.97 28.3468C43.22 27.6868 43.6 27.0468 44.04 26.4868C44.34 26.1068 44.82 25.7068 45.26 25.6468C46.5 25.4768 47.33 24.7468 48.14 23.9268C48.22 23.8468 48.35 23.7968 48.45 23.7368C48.83 24.4435 48.5833 25.1168 47.71 25.7568C48.38 26.4168 48.99 26.4368 49.4 25.7568C49.61 25.4068 49.81 24.9368 49.75 24.5768C49.45 22.8768 49.32 21.1368 48.47 19.5668C48.03 18.7568 47.52 18.1568 46.53 18.2168C46.06 18.2468 45.74 18.0868 45.45 17.7068C45.35 17.5768 45.01 17.6168 44.79 17.5868C44.71 17.7768 44.67 18.0768 44.55 18.1068C43.71 18.3268 42.91 18.2468 42.13 17.7768C41.14 17.1768 39.6 17.8668 39.26 19.1668C39.84 18.8968 40.31 18.6668 40.79 18.4568C41.37 18.1968 41.88 18.0768 42.58 18.3968C43.32 18.7468 44.21 19.0668 45.13 18.5468C45.59 18.9468 46.01 19.4168 46.74 19.0568C46.9 18.9768 47.43 19.2668 47.55 19.5068C47.96 20.3668 48.54 21.1768 48.51 22.3168C47.66 22.1868 46.91 21.9268 46.37 21.3268C45.95 20.8668 45.51 20.8868 44.95 20.9568C44.88 21.5668 44.81 22.1468 44.7 22.9968C45.3 22.6068 45.69 22.3468 46.13 22.0568C46.69 23.0168 45.76 23.5468 45.59 24.2568C44.75 24.4868 44.22 23.8868 43.72 23.4368C43.2 22.9668 42.78 22.3468 42.43 21.7268C42.28 21.4668 42.44 21.0368 42.47 20.6168C41.71 20.4468 41.13 21.0968 40.33 21.2768C40.02 20.9768 39.68 20.6468 39.34 20.3068C39.3 20.3368 39.25 20.3668 39.21 20.3968C39.5 21.0268 39.79 21.6668 40.14 22.4268C40.62 22.1368 41.1 21.8568 41.74 21.4768C41.91 22.3568 42.05 23.1268 42.19 23.8968C42.23 24.1468 42.16 24.4568 42.29 24.6368C42.97 25.5968 42.44 26.3868 42.04 27.2268C40.28 31.0068 38.06 34.5068 35.58 37.8468C35.36 38.1368 35.09 38.3868 34.7 38.8168C33.91 37.0868 34.18 35.4168 34.02 33.8268C33.86 32.1968 33.79 30.5568 33.67 28.8368C34.39 28.7868 35.06 28.8768 35.16 28.0468C35.16 27.9668 35.65 27.9468 35.92 27.9068C35.99 28.0468 36.05 28.2468 36.15 28.2768C36.86 28.4968 37.19 27.8768 37.64 27.5368C38.02 27.2468 38.12 26.8568 37.86 26.4168C37.84 26.3768 37.82 26.3468 37.79 26.3068C36.82 24.9768 36.22 23.4368 35.33 22.0668C35 21.5668 34.44 21.2068 33.86 20.6668C34.79 18.9768 34.68 16.6968 36.55 15.3468C37 15.0168 37.11 14.5368 36.96 13.9768C36.83 13.4868 36.79 12.9768 36.66 12.4868C36.26 11.0068 35.81 10.8168 34.26 11.5568C34.02 11.2168 33.76 10.8668 33.52 10.4968C33.3 10.1468 33.17 9.69681 32.52 9.83681C32.32 10.2368 32.42 10.8768 31.79 11.1068C31.67 11.1468 31.68 11.6568 31.71 11.9368C31.8 12.7268 31.89 13.5168 32.05 14.2968C32.27 15.4268 33.23 15.7468 34.25 16.0568C33.7 18.0468 33.74 20.2168 31.84 21.7068C31.24 21.2868 30.7 20.8868 30.13 20.5368C29.32 20.0468 28.41 20.5168 28.41 21.4568C28.41 22.1568 28.61 22.8468 29.21 23.4768C29.98 22.5668 28.75 21.9768 28.98 21.2368C29.31 20.8668 29.67 21.0568 29.99 21.2468C30.28 21.4168 30.56 21.6268 30.79 21.8668C31.29 22.3668 31.78 22.3968 32.38 22.0268C32.97 21.6668 33.59 21.4268 34.29 21.8368C34.79 22.1268 35.09 22.5268 34.87 23.0868C34.63 23.7068 34.32 24.3068 33.97 24.8668C33.62 25.4368 33.18 25.9468 32.8 26.4968C32.44 27.0168 32.1 27.0768 31.7 26.5768C31.25 26.0268 30.88 25.4168 30.47 24.8468C30.04 25.4668 30.04 25.4868 30.83 27.2068C30.33 27.2268 29.82 27.2668 29.32 27.2768C27.64 27.3168 26.84 26.3468 27.17 24.7068C27.21 24.4868 27.2 24.2568 27.22 23.9468C25.98 24.3268 26.64 25.8468 25.39 26.2068C26.23 26.8268 26.9 27.3268 27.68 27.8968C28.25 28.7368 27.25 29.5268 27.29 30.4668C27.32 31.3768 27.03 32.2868 26.94 33.2068C26.84 34.1568 26.82 35.1168 26.76 36.2068C26.47 36.0368 26.34 35.9968 26.28 35.9168C25.04 34.3568 23.83 32.7768 22.57 31.2268C22.02 30.5568 21.94 29.9368 22.34 29.1368C22.84 28.1368 22.88 26.9768 22.26 26.0968C21.49 25.0168 20.29 24.3168 19.13 23.6668C18.62 23.3768 17.57 23.6868 16.92 24.1068C17.18 24.2268 17.38 24.3768 17.59 24.3968C17.83 24.4168 18.11 24.2468 18.33 24.3068C18.72 24.3968 19.18 24.5068 19.4 24.7768C19.52 24.9268 19.29 25.4768 19.09 25.7568C18.71 26.3068 18.24 26.7868 17.76 27.3468C17.28 26.7868 16.88 26.3268 16.49 25.8568C16.09 25.3768 15.73 24.8568 15.3 24.4168C15.05 24.1568 14.66 24.0368 14.35 23.8368C13.56 23.3268 13.35 22.9168 13.61 22.4368C13.91 21.8968 14.75 21.6868 15.41 22.0068C15.74 22.1668 16.05 22.3868 16.66 22.7468C16.43 22.2368 16.39 21.9568 16.22 21.7968C15.4 20.9768 13.68 21.0168 13.04 21.9568C12.81 22.2868 12.94 22.8668 12.88 23.6368C12.6333 24.0635 12.5867 24.7435 12.74 25.6768C12.67 25.7168 12.58 25.8168 12.54 25.7968C10.93 24.9768 9.01 25.1268 7.45 24.1268C6.87 23.7568 6.39 23.4068 6.01 22.7768C5.54 21.9968 4.87 21.2968 4.17 20.7068C3.41 20.0568 2.45 19.9768 1.55 20.4768C0.61 21.0668 0.01 21.9168 0 23.0868C0 23.2868 0.07 23.5268 0.19 23.6668C0.8 24.3668 1.4 25.0968 2.09 25.7068C3.37 26.8268 4.63 26.6668 5.71 25.3368C5.94 25.0468 6.17 24.7568 6.36 24.5268C8.44 25.6668 10.43 26.7668 12.43 27.8568C12.48 27.8768 12.58 27.8068 12.82 27.7268C11.89 27.1768 11.05 26.6868 10.21 26.1968L10.34 25.9368C11.88 26.6368 13.54 27.0768 14.99 28.2368C14.64 28.9068 14.91 29.4468 15.37 29.9868C15.83 30.5368 16.26 30.8668 17.06 30.8568C17.68 30.8568 18.34 31.2368 18.94 31.5368C19.79 31.9668 20.56 31.9468 21.33 31.2568C21.56 31.4968 21.77 31.6868 21.95 31.8968C22.85 32.9668 23.74 34.0468 24.65 35.1068C26.14 36.8568 27.13 38.7668 27.35 41.1368C27.6 43.8268 28.12 46.4968 28.55 49.1768C28.65 49.7768 28.86 50.3668 29.17 50.9268L28.96 49.0368C29.65 49.7868 30.12 52.9068 29.96 54.3468C27.34 53.1568 19.69 47.0268 18.44 45.1168C18.7 44.3468 19.79 43.9368 19.5 42.9568C19.4 42.6268 18.99 42.3868 18.71 42.1168C18.5 41.2468 18.02 40.3868 18.8 39.3868C17.82 39.3368 17.33 38.2868 16.23 38.6968C16.71 38.9968 17.08 39.2368 17.45 39.4768L17.34 39.7168C17.08 39.6968 16.79 39.7468 16.55 39.6568C16.22 39.5268 15.98 39.0668 15.55 39.3568C15.17 39.6068 14.8 39.8868 14.47 40.1968C14.27 40.3868 14.17 40.6868 14.04 40.9268C13.5 40.7368 13.01 40.5468 12.5 40.4168C12.43 40.3968 12.28 40.7068 12.16 40.8768C13.0933 41.3035 13.7233 41.7735 14.05 42.2868C13.19 42.7768 13.16 42.7568 11.97 41.3468C11.91 41.5368 11.78 41.7368 11.83 41.7968C12.55 42.7068 12.36 43.8468 12.61 44.8668C12.95 46.2268 13.6 46.5668 14.77 45.7668C15.72 45.1168 16.52 45.0768 17.37 45.8668C17.71 46.1868 18.11 46.4268 18.47 46.7268C21.5 49.3068 24.54 51.8768 27.56 54.4668C28.3 55.0968 29.03 55.7468 29.75 56.3968C30.44 57.0268 30.76 57.7968 30.82 58.7568C31.01 61.7968 31.4 64.8168 32.01 67.8168C32.88 72.0468 33.55 76.3168 34.4 80.5468C34.8 82.5368 35.42 84.4768 35.92 86.4468C36.02 86.8368 36.17 87.3568 36 87.6568C35.44 88.6868 35.65 89.7068 35.79 90.7568C35.89 91.4968 36.24 92.2268 35.86 92.9968C35.81 93.0868 35.88 93.2468 35.9 93.3668C36.1 94.5668 36.42 95.7568 36.47 96.9668C36.5 97.8168 36.29 98.7368 35.98 99.5468C35.98 99.5668 35.96 99.5968 35.95 99.6168C36.25 99.8568 36.55 100.097 36.85 100.337C37.07 100.027 37.32 99.7368 37.65 99.4568C37.72 99.8968 37.89 100.237 37.79 100.407C37.7 100.557 37.61 100.707 37.51 100.847C37.83 101.097 38.14 101.337 38.46 101.577C39.11 100.927 39.74 100.237 40.41 99.5968C40.85 99.1768 41.35 98.8068 41.82 98.4268C42.81 99.5268 42.73 99.4968 42.3 100.677C41.87 101.837 42.15 102.967 42.77 104.017C43.43 103.877 43.31 103.487 43.18 103.117C42.92 102.387 42.75 101.727 43.3 100.967C43.58 100.577 43.58 99.8068 43.42 99.3068C43.25 98.8068 42.71 98.4468 42.23 97.9068C42.56 97.6568 42.88 97.3268 43.26 97.1168C45.94 95.6568 48.57 94.0968 51.33 92.8168C54.26 91.4668 57.06 89.8968 59.9 88.3668C61.01 87.7668 62.18 87.2468 63.35 86.7768C65.24 86.0268 67.16 85.3568 69.06 84.6468C71.26 83.8268 72.98 82.3068 74.65 80.7468C75.7 79.7668 76.7 78.7368 77.7 77.7468C78.7 78.2668 79.62 78.1568 80.56 77.9068C82.03 77.5168 83.49 77.0468 84.98 76.8268C88.58 76.2968 91.87 75.1368 94.57 72.5968C94.75 72.4268 94.96 72.2768 95.13 72.1368C96.19 72.7568 97.18 73.3968 98.23 73.9268C98.86 74.2468 99.58 74.4268 100.27 74.5968C100.69 74.6968 101.14 74.6668 101.22 74.0268C99.43 73.6068 98.01 72.4468 96.31 71.8468C96.36 71.7368 96.41 71.6368 96.46 71.5268C96.75 71.6468 97.04 71.7668 97.39 71.9068C97.7 71.6968 98.03 71.4668 98.33 71.2568C98.47 71.3168 98.6 71.3368 98.61 71.3868C99 72.5468 99.72 73.2568 101.02 73.1668C101.79 73.1168 101.87 73.8968 102.32 74.2168C103.98 73.5268 104.49 72.4368 103.76 70.8068C103.69 71.2968 103.65 71.6068 103.61 71.9468C103.44 71.9468 103.29 72.0068 103.21 71.9468C102.36 71.4068 103 70.8668 103.27 70.3168C103.04 69.8568 102.8 69.4068 102.6 68.9468C102.25 68.1668 102.3 67.9368 103.06 67.4968C103.57 67.2068 104.14 67.0168 104.71 66.8568C105.23 66.7168 105.79 66.6868 106.44 66.5968C106.57 66.8868 106.71 67.1768 106.83 67.4768C107.12 68.2268 107.33 69.0168 107.68 69.7268C108.12 70.6068 108.62 70.7968 109.7 70.6168C109.27 69.6268 108.01 69.1068 108.15 67.6968C108.41 68.1168 108.6 68.4468 108.8 68.7668L108.91 68.6168C109.81 69.2268 110.77 69.7468 111.58 70.4568C112.5 71.2568 113.34 70.8368 114.18 70.4868C115.04 70.1268 115.64 69.4868 115.7 68.4868C115.7 68.3868 115.6 68.2768 115.48 68.0368L115.51 68.0768ZM94.44 52.6568C94.17 52.6068 93.76 52.3268 93.73 52.1068C93.61 51.2868 93.6 50.4368 94.41 49.7268C95.36 50.3468 95.77 51.2568 96.14 52.2368C95.59 52.6668 95.01 52.7668 94.44 52.6568ZM95 48.8768C95.94 48.6968 95.95 48.6868 96.27 49.0168C96.85 49.6168 97.23 50.3168 97.34 51.1468C96.13 50.8468 95.85 49.6568 94.99 48.8668L95 48.8768ZM97.39 51.2468C98.26 52.4068 98.33 52.8068 97.73 53.6368C97.47 52.8268 97.29 52.0568 97.39 51.2468ZM103.54 29.4368C103.9 29.8468 104.19 30.1868 104.63 30.6868C103.797 30.5268 103.433 30.1101 103.54 29.4368ZM102.31 32.7268C102.55 31.6968 102.58 31.6668 103.66 32.2268C103.45 32.6368 103.23 32.9468 103.13 33.2868C103.04 33.6168 103.07 33.9868 103.05 34.4068C102.03 34.0468 102.14 33.4168 102.3 32.7268H102.31ZM96.2 25.4268C96.49 25.8668 96.7 26.1668 97.08 26.7368C96.59 26.7068 96.27 26.7868 96.17 26.6668C95.88 26.3268 95.98 25.9368 96.2 25.4268ZM98.42 27.6268C98.67 28.2668 98.8 28.8068 99.08 29.2468C99.4 29.7368 99.87 30.1168 100.24 30.5768C100.39 30.7668 100.55 31.0668 100.5 31.2568C100.19 32.3368 99.8 33.3968 98.85 34.2968C98.31 33.5768 98.67 33.1768 98.92 32.7568C99.19 32.3168 99.61 31.9068 99.4 31.3268C98.14 30.9768 96.89 31.3968 95.63 31.1068C96.22 29.5568 97.33 28.6868 98.42 27.6268ZM97.52 32.9568C97.23 32.7068 96.93 32.4468 96.62 32.1868C96.64 32.0968 96.66 32.0068 96.68 31.9268C97.44 32.0668 98.05 31.0568 98.91 31.6468C98.74 32.4068 98.24 32.7268 97.52 32.9568ZM93.93 26.2368C93.57 25.7568 93.38 25.1468 93.12 24.5968C93.24 24.3768 93.37 24.1468 93.6 23.7168C93.86 24.4468 93.96 25.0068 94.25 25.4468C94.56 25.9268 95.19 26.1868 95.19 26.9268C94.7 26.7668 94.2 26.5968 93.93 26.2468V26.2368ZM95.38 31.6168C95.88 31.9568 96.22 32.4068 96.48 33.1968C95.87 32.8868 95.47 32.6868 95.09 32.4868C94.57 33.1568 94.55 33.6068 95.07 33.9768C95.52 34.2968 96 34.5268 96.61 34.3268C97.4 34.0568 98.06 34.3468 98.74 34.9068C97.57 36.3468 96.22 37.4768 94.83 38.5768C94.25 39.0368 93.76 39.6268 93.23 40.1568C93.81 39.9268 94.39 39.7068 94.96 39.4768L95.07 39.7268C94.54 40.0468 94.02 40.3868 93.47 40.6768C93.11 40.8668 93.05 40.6068 93.09 40.3068C92.01 41.2168 91.09 42.3568 89.71 42.9568C90.06 40.3768 93.72 33.0568 95.38 31.6168ZM80.03 17.7168C80.41 17.3168 80.73 16.9868 81.22 16.4868C81.02 17.6568 80.89 17.7868 80.03 17.7168ZM80.98 12.9268C82.09 13.6368 82.56 14.4368 82.34 15.4368C81.86 14.1768 81.08 13.3768 79.62 13.3568C80.04 12.5468 80.49 12.6168 80.98 12.9268ZM78.13 14.8168C78.25 14.2268 78.6 13.9968 79.2 14.1268C79.57 14.2068 79.95 14.2768 80.46 14.3768C79.94 15.3468 79.47 16.2368 78.92 17.2468C78.31 16.4568 78 15.4268 78.12 14.8068L78.13 14.8168ZM76.26 10.4468C76.26 10.4468 76.35 10.5068 76.4 10.5468C76.21 10.8268 76.02 11.1068 75.83 11.3868C75.78 11.3568 75.73 11.3168 75.68 11.2868C75.87 11.0068 76.07 10.7368 76.26 10.4568V10.4468ZM75.11 7.91681C75.62 8.40681 76.31 8.70681 75.81 9.63681C75.33 9.28681 74.92 8.97681 74.46 8.63681C74.71 8.36681 74.89 8.15681 75.11 7.91681ZM72.5 10.1668C72.77 9.41681 73.32 9.00681 73.89 9.13681C74.56 9.28681 74.91 9.9968 74.8 10.8168C74.74 11.2668 74.8 11.7368 74.82 12.3368C74.67 12.3768 74.38 12.4568 73.91 12.5868C74.01 11.6468 74.09 10.8668 74.2 9.8168C72.94 10.5868 73.74 11.8568 73.12 12.6068C72.39 11.9668 72.17 11.0868 72.5 10.1668ZM64.14 5.51681C63.87 4.92681 63.52 4.33681 63.89 3.38681C64.25 3.87681 64.58 4.18681 64.72 4.56681C64.9 5.02681 64.95 5.54681 65 6.05681C65.1 7.10681 65 7.19681 63.71 7.16681C64.53 6.73681 64.43 6.16681 64.14 5.51681ZM61.6 1.77681C61.5867 2.48347 61.2333 2.83681 60.54 2.83681C60.98 2.39681 61.29 2.08681 61.6 1.77681ZM61.4 7.18681C60.49 7.28681 59.52 6.41681 59.55 5.50681C59.57 4.88681 60.01 4.23681 60.5 4.13681C61.01 4.02681 61.48 4.41681 61.72 5.17681C61.85 5.57681 61.98 5.98681 62.03 6.40681C62.08 6.82681 61.89 7.13681 61.4 7.18681ZM63.01 4.47681C63.44 5.07681 63.84 5.57681 63.63 6.45681C62.85 5.61681 62.81 5.48681 63.01 4.47681ZM61.45 10.3368C61.67 10.7668 61.64 11.1468 61.14 11.3668C60.4667 11.0068 59.9667 10.4935 59.64 9.82681C60.66 9.60681 61.16 9.75681 61.45 10.3368ZM54.36 10.0468C54.52 9.95681 54.81 10.1068 55.28 10.1868C54.63 10.8468 54.19 11.2968 53.59 11.8968C53.42 10.8968 53.75 10.3768 54.36 10.0368V10.0468ZM54.3 14.8668C53.9733 14.4668 54.0633 14.0035 54.57 13.4768C54.31 11.7968 55.08 10.7368 56.8 10.4868C57.28 11.2268 57.52 12.0368 57.34 12.9468C57.07 13.0268 56.84 13.0968 56.5 13.1968C56.8 13.8568 57.07 14.4468 57.35 15.0368C56.27 14.7068 55.99 14.2968 56.04 13.1568C56.07 12.3768 56.06 12.3368 55.3 11.9868C55.46 13.1468 55.72 14.3268 54.29 14.8768L54.3 14.8668ZM57.56 16.8368C57.25 16.7168 56.95 16.6068 56.66 16.4968C56.38 15.8568 55.42 15.7068 55.35 14.6268C56.41 15.0768 57 15.8768 57.73 16.4668C57.75 16.4868 57.64 16.6668 57.56 16.8468V16.8368ZM57.49 43.3368C57.42 43.3968 57.35 43.4568 57.28 43.5168C56.96 43.3668 56.62 43.2368 56.9 42.5668C57.16 42.9068 57.33 43.1168 57.49 43.3368ZM56.33 37.6068C56.04 38.4868 55.48 38.0368 55.02 37.9368C55.42 37.8368 55.82 37.7368 56.33 37.6068ZM55.14 41.0168C55.01 40.6968 54.93 40.1668 55.1 39.9368C55.52 39.3768 56.09 38.9268 56.68 38.3468C57.11 38.8668 57.44 39.2668 57.79 39.6968C57.57 39.7868 57.5 39.8468 57.42 39.8468C55.98 39.9868 55.69 40.3768 56 41.7368C56.08 42.0868 56.15 42.4468 56.23 42.7968C55.78 42.2268 55.4 41.6468 55.14 41.0068V41.0168ZM47.47 22.7268C47.47 23.1468 47.58 23.4668 47.47 23.5968C46.99 24.1468 46.37 24.4568 45.61 24.2968C46.17 23.8268 46.73 23.3668 47.48 22.7268H47.47ZM34.92 39.7668C35 39.8768 35.08 39.9868 35.17 40.0968C34.97 40.2168 34.76 40.3468 34.55 40.4568C34.54 40.4568 34.37 40.2068 34.39 40.1968C34.56 40.0368 34.74 39.9068 34.93 39.7668H34.92ZM37.04 27.4068C36.74 27.6368 36.34 27.7368 35.98 27.8768C36.11 27.5768 36.24 27.2668 36.38 26.9668C36.51 26.7068 36.66 26.4468 36.8 26.1868C37.56 26.6368 37.64 26.9368 37.04 27.3968V27.4068ZM36.35 25.1668H36.58C36.65 25.4968 36.72 25.8268 36.78 26.1568C36.48 26.2568 36.17 26.3568 35.75 26.4968C35.98 25.9768 36.17 25.5768 36.35 25.1668ZM35.75 14.4468C35.63 13.7068 35.51 12.9968 35.39 12.2768C36.16 13.4868 36.19 13.8168 35.75 14.4468ZM32.47 13.0268C32.77 12.4168 33 11.9468 33.28 11.3868C34.1467 11.9601 34.5033 12.6568 34.35 13.4768C33.77 13.3368 33.19 13.2068 32.47 13.0268ZM0.63 22.8368C1.18 22.1968 1.6 21.5468 2.17 21.1068C2.82 20.6068 3.25 20.8968 3.48 21.8368C3.06 21.8668 2.64 21.8968 2.06 21.9468C3 22.6368 4.36 22.0668 4.86 23.4268C3.33 24.1068 2.05 23.7168 0.63 22.8368ZM13.17 25.0068C14.3 24.7668 14.94 25.3868 15.43 27.2768C14.68 26.5568 13.48 26.2468 13.17 25.0068ZM15.45 28.5468C16.07 28.6668 16.48 28.9668 16.67 29.7268C15.57 29.5468 15.5 29.4768 15.45 28.5468ZM18.21 29.7368C17.94 29.6068 17.57 29.5368 17.41 29.3168C16.68 28.3368 15.95 27.3368 15.65 25.8268C16.37 26.5068 16.98 26.9268 17.38 27.4868C17.81 28.0868 18.04 28.8168 18.36 29.4968C18.31 29.5768 18.26 29.6568 18.22 29.7368H18.21ZM18.92 28.9168C18.63 28.5968 18.37 28.3068 18.03 27.9268C18.61 27.4968 19.06 27.1668 19.66 26.7268C20.1 27.8568 19.57 28.3468 18.92 28.9168ZM20.87 29.9268C20.71 29.7368 20.55 29.5468 20.4 29.3568C20.46 29.3068 20.53 29.2468 20.59 29.1968L21.09 29.7468C21.02 29.8068 20.95 29.8668 20.87 29.9268ZM21.37 28.8168C21.17 28.7768 20.83 28.5268 20.85 28.4068C20.92 27.8168 20.6 27.3668 20.41 26.8668C20.2 26.3468 20.54 25.8168 21.09 25.8468C21.16 25.8968 21.38 25.9768 21.4 26.0868C21.56 26.8668 21.7 27.6568 21.8 28.4468C21.81 28.5568 21.49 28.8368 21.37 28.8168ZM18.71 42.1468C18.81 42.5268 18.91 42.9168 19 43.2968C18.9 43.3068 18.81 43.3268 18.71 43.3368C18.47 42.9568 18.29 42.5768 18.71 42.1468ZM16.05 42.9568C15.77 43.4768 15.43 43.9668 15.17 44.4968C14.84 45.1668 14.35 45.5468 13.61 45.5868C12.9433 45.0201 12.71 44.3235 12.91 43.4968C13.25 43.4668 13.63 43.4568 13.99 43.3868C15.05 43.1868 15.34 42.4968 14.78 41.5868C14.69 41.4468 14.62 41.2968 14.46 41.0068C14.75 40.8068 15.04 40.4268 15.31 40.4468C16.15 40.5068 17.06 40.4668 17.73 41.1568C16.93 41.5368 16.45 42.1968 16.04 42.9468L16.05 42.9568ZM17.29 43.4468L17.73 41.2868C17.68 42.0168 17.83 42.7868 17.29 43.4468ZM34.71 25.4468C34.45 26.1568 34.3 26.5968 34.13 27.0768C33.15 26.3868 33.22 26.1468 34.71 25.4468ZM27.66 39.1868C27.76 39.1668 27.86 39.1568 27.96 39.1368C28.58 42.0868 29.07 45.0668 29.23 48.0968C28.71 45.1268 28.19 42.1568 27.67 39.1868H27.66ZM30.8 51.7768C30.75 50.7468 30.97 49.6768 30.76 48.6868C30.06 45.2968 29.29 41.9168 28.4 38.5668C27.96 36.8868 27.77 35.2568 28.06 33.5568C28.23 32.5568 28.52 31.5368 28.44 30.5468C28.29 28.6368 29.13 27.6468 30.88 27.2368C31.13 27.6968 31.32 28.2068 31.66 28.5968C32.18 29.1968 32.51 29.8368 32.56 30.6368C32.71 33.2068 32.85 35.7868 33.07 38.3568C33.14 39.1768 33.34 40.0268 33.7 40.7568C33.98 41.3368 34.17 41.8268 33.94 42.4268C33.27 44.1168 33.29 45.8868 33.25 47.6668C33.23 48.4668 33.14 49.2668 33.05 50.0668C33.02 50.3068 32.94 50.6768 32.79 50.7268C31.82 51.0868 31.66 51.8568 31.61 52.7368C31.61 52.8768 31.44 53.0068 31.19 53.3668C31.03 52.6968 30.84 52.2368 30.82 51.7668L30.8 51.7768ZM32.74 53.3868C32.72 53.6668 32.71 53.9368 32.69 54.2168C32.6 54.2168 32.5 54.2168 32.41 54.2068C32.45 53.9268 32.48 53.6468 32.52 53.3668C32.59 53.3668 32.67 53.3768 32.74 53.3868ZM31.84 57.2768C31.64 56.2368 31.45 55.2068 31.25 54.1668C32.31 55.1968 32.38 55.6468 31.84 57.2768ZM37.31 93.6768C36.42 91.9468 36.29 90.2468 36.62 88.4968C37.23 90.0468 37.61 92.8868 37.31 93.6768ZM36.01 82.1868C35.46 79.1468 34.88 76.1168 34.32 73.0868C33.61 69.2168 32.91 65.3468 32.22 61.4768C32.13 60.9968 32.14 60.4968 32.1 60.0068C32.45 60.6568 32.74 61.3268 32.89 62.0268C33.42 64.5968 33.91 67.1668 34.42 69.7368C35.2 73.6368 35.98 77.5268 36.76 81.4268C36.99 82.5768 37.2 83.7368 37.42 84.8868C36.58 84.1168 36.2 83.2068 36.01 82.1868ZM86.46 34.8868C85.75 35.1968 85.1 35.8368 83.94 35.5068C84.85 34.7068 85.65 34.2368 86.53 33.9768C86.91 34.3968 86.78 34.7468 86.45 34.8868H86.46ZM85.73 30.0568C86.11 30.6768 86.39 31.1468 86.85 31.9168C86.2 31.9768 85.87 32.0068 85.43 32.0468C85.48 31.3568 85.2 30.7968 85.73 30.0568ZM85.93 33.3468C85.26 34.1268 84.52 34.3668 83.73 34.2068C83.16 34.4668 83.13 35.5568 82.19 34.9768C82.4 34.1968 82.61 33.4468 82.84 32.6068C84.05 32.3368 84.93 32.8968 85.94 33.3568L85.93 33.3468ZM82.66 31.0168C82.22 30.8068 81.88 30.6268 82.01 30.1068C82.04 30.0068 82.29 29.8668 82.38 29.8968C82.85 30.0668 82.98 30.3968 82.67 31.0068L82.66 31.0168ZM84.34 32.0768C83.92 31.8768 83.54 31.6968 83.15 31.5168C83.5833 30.7701 83.5633 30.1201 83.09 29.5668C83.09 29.5668 83.03 29.4568 83.01 29.3968C83.58 29.6568 84.14 29.9168 84.7 30.1668C84.57 30.8468 84.46 31.4068 84.33 32.0868L84.34 32.0768ZM81.98 28.5068C82.41 28.6268 82.83 28.7668 82.94 29.3068C82.57 29.1068 82.2 28.9068 81.83 28.7168C81.88 28.6468 81.93 28.5768 81.98 28.5068ZM79.11 29.0668C79.55 28.7868 79.98 28.6868 80.34 29.1568C80.96 29.9568 81.59 30.7468 82.14 31.5968C82.32 31.8768 82.37 32.3768 82.24 32.6768C81.87 33.5468 81.37 34.3768 80.78 35.5068C79.83 33.6768 78.99 32.1268 78.21 30.5468C77.97 30.0568 78.33 29.5668 79.11 29.0768V29.0668ZM77.14 27.4668C77.32 26.7768 77.46 26.2868 77.59 25.7868C77.68 25.8068 77.78 25.8168 77.87 25.8368C77.87 26.3868 78.01 26.9768 77.14 27.4568V27.4668ZM77.35 31.9368C78.14 32.8168 79.12 33.6168 78.65 35.0668C78.82 35.2368 79.01 35.3968 79.17 35.5868C79.35 35.7968 79.51 36.0368 79.69 36.2868C78.09 37.5568 76.61 38.8468 74.63 39.4668C76.04 37.1168 76.41 34.4268 77.34 31.9368H77.35ZM60.21 60.0568C59.63 59.0368 59.19 57.9668 59.02 56.8068C59.11 56.7768 59.2 56.7368 59.29 56.7068C59.69 57.7768 60.1 58.8468 60.5 59.9168C60.4 59.9668 60.3 60.0068 60.2 60.0568H60.21ZM56.51 75.4468C55.7 77.2168 54.81 78.9368 53.88 80.6368C53.54 81.2668 53.13 81.8668 52.72 82.4568C52.51 82.7668 52.23 83.0468 51.99 83.3268C50.36 85.2068 48.73 87.0968 47.09 88.9768C46.88 89.2168 46.65 89.4268 46.42 89.6468C46.39 89.6168 46.36 89.5868 46.33 89.5668C49.72 84.8668 53.11 80.1568 56.5 75.4568L56.51 75.4468ZM51.92 91.5468C54.28 89.5668 57.01 88.2868 59.92 87.3468C57.45 89.1268 54.8 90.5568 51.92 91.5468ZM69.3 83.4368C70.51 82.5668 71.73 81.6968 73.11 80.7068C72.45 82.1168 70.64 83.4568 69.3 83.4368ZM74.41 78.7868C72.38 80.2468 70.36 81.7268 68.36 83.2268C66.45 84.6568 64.26 85.4768 61.97 85.9368C59.98 86.3268 58.11 86.9568 56.38 87.9368C53.62 89.5068 50.94 91.2168 48.22 92.8468C47.68 93.1668 47.12 93.6568 46.54 93.6868C45.14 93.7668 44.03 94.3068 42.99 95.1868C42.68 95.4468 42.31 95.8168 41.72 95.5268C42.04 94.7568 42.66 94.3968 43.25 94.0068C43.63 93.7468 44.05 93.5068 44.35 93.1668C45.57 91.7568 46.79 90.3468 47.94 88.8868C49.38 87.0468 50.79 85.2068 52.54 83.6368C53.15 83.0868 53.67 82.3568 54.06 81.6268C56.42 77.1268 58.9 72.6968 61.78 68.4868C63.82 65.5168 65.67 62.4268 67.03 59.0668C67.31 58.3668 67.55 57.6568 67.82 56.9568C67.15 57.8268 66.7 58.7768 66.23 59.7168C65.44 61.2668 64.66 62.8168 63.83 64.3368C63.55 64.8468 63.3 65.4368 62.56 65.7568C62.63 65.4468 62.63 65.2768 62.7 65.1368C63.29 63.9668 63.87 62.7868 64.51 61.6368C67.15 56.9368 69.42 52.0668 71.32 47.0268C72.07 45.0368 72.84 43.0868 74.05 41.3068C74.5 40.6468 74.99 40.1168 75.73 39.8368C76.85 39.4068 77.84 38.7768 78.74 37.9668C79.14 37.6068 79.62 37.3368 80.17 36.9468C80.87 38.4368 80.89 39.8268 80.42 41.0868C80.06 42.0668 79.81 42.8968 80.28 43.8668C80.4 44.1168 80.34 44.4468 80.39 44.7368C80.61 46.0668 80.79 47.4068 81.08 48.7268C81.3 49.7168 81.64 50.6868 81.96 51.6468C82.22 52.4468 82.23 53.1868 81.94 53.9968C81.24 55.9468 80.6 57.9268 79.95 59.8868C79.82 60.2868 79.71 60.6968 79.63 61.1168C79.25 63.2068 78.97 65.3268 78.5 67.3968C77.84 70.2868 77.03 73.1368 76.32 76.0168C76.03 77.1868 75.42 78.0868 74.45 78.7868H74.41ZM96.04 61.9668C96.23 61.1768 95.44 60.3668 96.27 59.5468C96.95 60.3068 97.64 60.9968 98.22 61.7568C98.65 62.3168 98.52 62.8368 97.98 62.9968C97.07 63.2568 96.15 63.4568 95.23 63.6768C95.19 63.1968 95.15 62.7368 95.11 62.2868C95.45 62.1668 95.75 62.0668 96.04 61.9568V61.9668ZM90.2 58.6468C91.43 57.9068 92.68 58.0068 93.97 58.1068C94.79 58.1668 95.03 58.5568 94.84 59.4168C94.69 60.1368 94.49 60.8468 94.3 61.5668C93.92 61.3168 93.62 61.1268 93.33 60.9368C93.74 62.1768 94.15 63.3768 94.57 64.6468C94.7 64.6768 94.96 64.7368 95.27 64.8168C94.67 65.6468 93.92 65.3768 93.23 65.3368C92.24 65.2768 91.63 64.6468 91.72 63.7168C91.78 63.1468 91.7 62.6668 91.52 62.1268C91.34 61.5968 91.36 61.0068 91.28 60.3668C90.76 60.4968 90.37 60.5968 89.97 60.6968C88.76 59.6568 88.87 59.4468 90.18 58.6568L90.2 58.6468ZM90.97 66.0668C90.95 66.1868 90.78 66.2768 90.58 66.4668C90.49 66.2368 90.38 66.0768 90.41 65.9868C90.45 65.8668 90.63 65.8068 90.75 65.7168C90.83 65.8368 90.98 65.9668 90.96 66.0768L90.97 66.0668ZM90.91 68.4068C90.45 68.4968 90.02 68.5768 89.59 68.6568C90.1767 67.9435 90.6167 67.8601 90.91 68.4068ZM78.11 77.3468C78.7 76.5868 79.37 76.2368 80.13 76.0268C80.55 76.1168 80.96 76.1968 81.51 76.3068C80.43 77.0568 79.44 77.4868 78.11 77.3468ZM91.57 73.1568C88.83 74.1368 86.06 75.0568 83.28 75.9368C82.8 76.0868 82.22 75.9368 81.69 75.8968C81.17 75.8568 80.63 75.5468 80.15 76.0168C80 76.0168 79.83 75.9968 79.46 75.9768C79.91 75.4568 80.2 75.0068 80.59 74.6668C82.1 73.3768 83.59 72.0468 85.19 70.8768C86.2 70.1468 87.4 69.6668 88.53 69.1068C88.77 68.9868 89.13 68.9268 89.38 69.0168C90.19 69.3068 90.85 69.0768 91.45 68.4768C92.58 69.3268 93.81 69.9168 94.54 71.1368C93.66 72.0768 92.68 72.7568 91.56 73.1568H91.57ZM95.61 70.5268C95.45 69.9468 95.77 69.7068 96.08 69.7468C96.31 69.7768 96.5 70.1168 96.7 70.3368C96.33 70.3968 95.97 70.4668 95.61 70.5268ZM100.89 72.3468C100.55 72.2968 100.17 71.9668 99.96 71.6468C99.69 71.2368 99.58 70.7368 99.35 70.1168C98.88 70.3368 98.53 70.5168 98.16 70.6668C97.82 70.7968 97.46 70.9468 97.1 70.9568C96.78 70.9568 96.58 70.7168 96.73 70.3568C97.08 70.2068 97.43 70.0568 98.05 69.7868C97.03 69.3668 96.31 69.0768 95.58 68.7868C95.22 69.2068 94.91 69.5768 94.59 69.9468C93.93 69.4568 93.36 69.0268 92.78 68.5868C92.23 68.1668 91.55 67.8968 91.16 67.1668C92.08 66.8368 92.63 67.5568 93.31 67.5768C94 67.6068 94.76 67.9868 95.48 67.3568C95.07 67.0368 94.76 66.7968 94.35 66.4768C95.15 65.7468 95.86 65.0968 96.59 64.4268C97.3633 65.4401 97.27 66.4401 96.31 67.4268C96.55 67.8668 96.85 67.8668 97.25 67.6268C98.54 66.8768 98.07 65.7668 97.82 64.6968C98.16 64.4468 98.46 64.2168 98.76 63.9968C99.46 63.4868 99.72 63.5168 100.21 64.1968C100.88 65.1168 101.27 66.1168 100.95 67.2668C100.5 67.4368 100.23 67.7168 100.19 68.2468C100.14 68.9468 100 69.6368 99.88 70.4468C100.18 70.6468 100.58 70.9168 101.05 71.2168C101.44 70.3668 100.66 69.4768 101.47 68.8168C102.32 69.6668 102.15 70.5768 101.87 71.5368C101.72 72.0668 101.36 72.3968 100.89 72.3368V72.3468ZM102.58 72.6868C102.53 72.8168 102.51 73.0068 102.42 73.0668C102.32 73.1268 102.14 73.0668 101.79 73.0468C102.05 72.7968 102.14 72.6668 102.26 72.6068C102.34 72.5668 102.47 72.6568 102.58 72.6868ZM112.51 59.6068C113.63 60.7068 113.77 61.3568 113.14 62.1268C112.04 61.3968 111.9 60.8668 112.51 59.6068ZM112.55 66.9068C112.37 66.6368 112.2 66.3668 111.96 66.0068C111.6 66.2568 111.31 66.4568 111.09 66.6168C111.21 67.1968 111.31 67.6568 111.42 68.1568C110.67 68.1868 110.29 68.0668 110.49 67.3768C110.51 67.2968 110.48 67.1868 110.47 67.0768C110.17 67.1768 109.94 67.2568 109.53 67.4068C109.38 66.9368 109.3 66.5768 109.16 66.2268C109.07 66.0068 108.95 65.6968 108.77 65.6468C108.03 65.4168 108.07 64.8568 108.17 64.3168C108.28 63.6668 108.46 63.0168 108.61 62.3868C107.41 61.7668 107.03 61.1668 107.28 60.3768C107.46 59.7968 108.88 58.8668 109.52 58.8968C110.16 58.9268 110.84 59.6668 110.99 60.6168C109.99 60.6468 109 60.6768 108.02 60.7068C108.02 60.8068 108.02 60.9168 108.02 61.0168C108.79 61.1168 109.56 61.2368 110.34 61.3068C112.14 61.4668 112.91 62.2768 112.89 64.0868C112.88 64.9668 112.77 65.8468 112.7 66.7268C112.7 66.7868 112.62 66.8368 112.56 66.9068H112.55Z" fill="#706F6F"/>
<path d="M14.68 9.2468C14.76 9.8068 15.14 9.7668 15.38 9.4868C15.83 8.9468 16.23 8.3568 16.53 7.7268C16.97 6.8068 16.92 5.7068 17.61 4.8568C17.72 4.7168 17.67 4.3668 17.58 4.1668C17.32 3.5768 16.83 3.3868 16.26 3.5868C15.21 3.9668 15.11 4.1268 15.28 5.0568L15.31 5.0368C14.16 5.3268 13 5.1968 11.83 5.1068C10.86 5.0268 10.51 4.7668 10.22 3.7568C10.68 3.9268 11.13 4.0868 11.81 4.3368C11.19 3.1168 11.91 2.6968 12.62 2.2668C13.37 2.6868 13.63 2.6168 14.36 1.6968C13.96 1.5968 13.56 1.3468 13.27 1.4468C12.62 1.6568 12.11 1.4868 11.61 1.1368C11.13 0.8068 10.75 0.8868 10.46 1.4068C10.34 1.6268 10.2 1.8368 10.08 2.0268C9.01002 1.9468 8.65002 2.0568 7.83002 2.7068C6.87002 3.4568 6.92002 4.0468 8.05002 4.8668C8.37002 4.3468 8.68002 3.8268 9.04002 3.2268C9.33002 4.4868 9.26003 4.6168 8.02003 5.2868C7.21003 5.0768 6.89002 4.4468 6.59002 3.7768C6.35002 3.2568 6.44002 2.8468 6.91002 2.5768C7.56002 2.1968 8.23002 1.8168 8.94002 1.5368C9.39002 1.3668 9.74002 1.1768 10.03 0.7668C10.64 -0.1032 11.07 -0.2032 11.95 0.3168C12.45 0.6168 12.92 0.6868 13.48 0.7368C14.29 0.8068 15.14 1.0368 15.65 1.8568C14.74 2.7068 13.87 3.5168 13 4.3368C14.06 4.4468 14.92 4.3568 15.54 3.4768C16.19 2.5568 16.37 2.5868 17.21 3.3368C17.5 3.5968 17.75 3.9668 18.38 3.7768C17.77 2.9368 17.22 2.1768 16.61 1.3268C17.95 1.4568 18.34 2.6468 19.17 3.1468C20 2.6868 19.13 2.1768 19.28 1.5568C19.66 1.8368 19.96 1.9968 20.17 2.2268C20.63 2.7468 20.55 3.1668 20.03 3.6468C19.3 4.3168 18.6 5.0068 17.89 5.6968C18.56 6.3168 19.13 6.8368 19.79 7.4468C19.3 8.0468 18.6 8.3268 17.95 8.6768C17.75 8.7868 17.41 8.9168 17.4 9.0668C17.35 9.5868 16.97 9.7468 16.63 9.9968C16.09 10.3868 15.57 10.8168 15.04 11.2268C15.17 11.7868 15.29 12.2768 15.38 12.7668C15.47 13.2468 15.52 13.7368 15.6 14.2868C15.89 14.1868 16.07 14.1568 16.2 14.0668C17.29 13.3268 18.32 13.6868 19.28 14.3068C21.4 15.6768 21.75 17.9768 20.17 19.9568C19.96 20.2168 19.7 20.4568 19.55 20.7568C19.25 21.3568 18.8 21.3468 18.26 21.1768C16.7 20.6868 15.48 19.7468 14.59 18.3968C14.4 18.1068 14.25 17.6468 14.34 17.3368C14.69 16.0768 14.98 14.8368 14.53 13.5468C14.52 13.5068 14.54 13.4668 14.54 13.4168C14.48 12.2868 14.31 11.2468 13.08 10.6868C12.67 10.4968 12.37 9.9868 12.12 9.5668C11.94 9.2568 12.03 8.9068 12.53 8.7868C12.85 9.1168 13.19 9.4568 13.66 9.9468C12.96 8.18013 12.89 7.10013 13.45 6.7068C13.17 7.9568 14.2 8.4668 14.71 9.2668C14.71 9.2668 14.69 9.2468 14.7 9.2468H14.68ZM17.98 19.0168C18.34 18.4168 18.91 17.9068 18.86 17.4568C18.76 16.6068 18.39 15.7568 17.99 14.9868C17.65 14.3368 16.77 14.2968 16.28 14.9368C15.65 15.7668 15.14 16.7168 15.14 17.8168C15.14 18.0468 15.37 18.2668 15.76 18.4568C15.85 17.7768 15.93 17.1068 16.02 16.4168C16.7 16.4368 16.74 16.9268 16.65 17.3068C16.35 18.6368 16.94 19.3368 18.15 19.7068C18.35 19.7668 18.52 19.8968 18.71 19.9868C18.74 19.9968 18.79 19.9668 19.02 19.8768C18.61 19.5368 18.26 19.2468 17.98 19.0068V19.0168ZM17.45 6.7068C17.37 6.7468 17.3 6.7968 17.22 6.8368C17.3 7.1568 17.31 7.5368 17.5 7.7568C17.61 7.8668 18.04 7.6868 18.33 7.6368L18.35 7.2568C18.05 7.0768 17.75 6.8968 17.45 6.7168V6.7068Z" fill="#706F6F"/>
<path d="M23.4 25.9168C22.49 24.3268 21.57 22.7368 20.65 21.1168C21.35 20.7568 21.66 21.1668 21.96 21.5968C22.34 22.1668 22.72 22.7468 23.1 23.3168C23.19 23.2868 23.28 23.2668 23.37 23.2368C23.44 22.7968 23.52 22.3568 23.59 21.9168C23.71 21.1268 23.67 20.2568 24 19.5568C24.33 18.8468 24.12 18.4968 23.71 17.9968C23.2 17.3768 22.7 16.7368 22.34 16.0268C22.15 15.6568 22.14 15.1068 22.25 14.6968C22.48 13.8768 23.35 13.3468 24.36 13.3768C25.44 13.4068 26.71 13.5068 27.05 14.6468C27.5 16.0968 27.59 17.7068 26.37 18.9568C25.13 20.2068 24.6 21.6668 24.71 23.4068C24.83 25.2768 24.97 27.1368 26.29 28.6468C26.41 28.7868 26.49 28.9768 26.59 29.1368C26.55 29.1768 26.5 29.2068 26.46 29.2468C26.19 28.9768 25.91 28.7168 25.64 28.4468C25.57 28.4868 25.5 28.5268 25.44 28.5668C25.74 29.1768 26.04 29.7868 26.34 30.3968C24.85 29.2268 24.3 27.4568 23.41 25.9068L23.4 25.9168ZM25.1 14.4468C24.56 13.9968 23.65 14.0368 23.13 14.5268C22.81 14.8268 22.73 15.1868 23.02 15.5268C23.72 16.3468 24.46 17.1368 25.26 18.0268C26.36 16.5468 26.26 15.4168 25.09 14.4468H25.1ZM24.85 19.7268H24.66C24.65 19.9368 24.63 20.1568 24.62 20.3768C24.68 20.3768 24.74 20.3768 24.81 20.3768C24.82 20.1568 24.84 19.9368 24.85 19.7168V19.7268Z" fill="#706F6F"/>
<path d="M98.26 21.2968C98.28 20.9468 98.3 20.5968 98.32 20.2568L98.29 20.2768C98.73 20.4868 99.17 20.6968 99.65 20.9168C100.09 20.0068 99.11 19.8268 98.92 19.1768C99.21 19.1468 99.53 19.0168 99.65 19.1168C100.49 19.8068 101.51 19.4968 102.43 19.7168C102.86 19.8168 103.35 19.9068 103.67 20.1668C104.27 20.6668 104.77 21.2868 105.56 22.1268C105.85 21.7368 106.14 21.3368 106.46 20.8968C106.87 21.1168 107.23 21.3068 107.59 21.4968C108.72 20.9668 109.36 21.1068 110.27 22.0768C111.3 23.1868 111.47 24.5368 110.68 25.9668C110.29 25.6268 109.89 25.3268 109.55 24.9768C109.26 24.6868 108.86 24.3068 109.27 23.8968C109.69 23.4768 109.88 24.1368 110.21 24.2168C110.28 24.2368 110.36 24.1768 110.51 24.1368C110.06 23.4968 109.65 22.8568 109.19 22.2568C108.7 21.6068 108.35 21.6668 108.05 22.4068C107.98 22.5868 107.93 22.7668 107.87 22.9368C107.22 22.8068 106.97 21.6968 106.12 22.3368C106.41 22.9668 107.01 23.3968 106.88 24.1868C106.32 23.8068 106.35 22.7868 105.28 23.0368C105.52 23.4768 105.63 23.9568 105.93 24.1768C106.81 24.8268 107.26 25.6668 107.4 26.7168C107.42 26.8568 107.56 26.9868 107.66 27.1668C108.06 26.9968 108.4 26.8468 108.75 26.6968C109.39 26.4268 110.29 26.6468 110.68 27.1668C111.1 27.7268 110.85 28.1968 110.48 28.6568C110.3 28.8768 110.12 29.0868 109.89 29.3468C109.5 29.1268 109.11 28.9968 108.87 28.7368C108.37 28.2068 107.9 27.9968 107.2 28.4068C106.67 28.7168 106.19 28.5368 105.76 27.8768C106.29 27.7368 106.7 27.6268 107.29 27.4668C106.29 26.9268 106.13 25.9968 105.76 25.1768C105.43 24.4668 105.29 23.6268 104.55 23.1468C104.43 23.0668 104.36 22.8568 104.35 22.6968C104.25 21.6168 103.39 21.0668 102.77 20.2668C102.51 20.5468 102.3 20.7768 102.11 20.9768C101.7 20.7868 101.37 20.6268 101.06 20.4768C100.453 21.2301 99.6467 21.5035 98.64 21.2968C98.52 21.2768 98.39 21.2668 98.26 21.2468L98.29 21.2768L98.26 21.2968ZM109.22 26.9668C108.9 27.2068 108.66 27.3868 108.38 27.5968C108.86 28.1768 109.3 28.5468 110.16 28.1168C109.82 27.6968 109.54 27.3668 109.21 26.9668H109.22Z" fill="#706F6F"/>
<path d="M9.08004 7.8968C9.23004 7.4968 9.36004 7.0768 9.52004 6.6868C9.67004 6.3268 9.87004 5.9768 10.17 5.3768C9.39004 5.5768 9.00004 5.7568 8.82004 6.3068C8.66004 6.7768 8.39004 7.2068 8.17004 7.6468C8.29004 8.2868 8.41004 8.9168 8.53004 9.5468C9.57004 8.3268 11.38 8.2368 12.05 6.8568C11.99 6.7668 11.92 6.6768 11.86 6.5868L9.44004 8.1468L9.08004 7.8968Z" fill="#706F6F"/>
<path d="M52.32 40.0368C51.84 39.2068 51.53 39.0768 50.99 39.5668C50.53 39.9768 50.14 40.4868 49.81 41.0168C49.57 41.3968 49.39 41.9568 49.85 42.2668C50.11 42.4368 50.59 42.2868 51.03 42.0368C50.83 41.8768 50.63 41.7168 50.43 41.5668C50.57 40.9868 51.2 40.4768 52.32 40.0368Z" fill="#706F6F"/>
<path d="M76.41 28.9368C75.61 31.1768 74.6 33.3468 74.24 35.7268L74.21 35.6868C74.6 34.7668 74.95 33.8268 75.39 32.9268C76.01 31.6568 76.35 30.3368 76.38 28.9268H76.41V28.9368Z" fill="#706F6F"/>
<path d="M87.9001 63.7368C88.2701 63.4268 88.5501 63.1868 88.8701 62.9168C88.6301 62.3268 88.4101 61.7768 88.1801 61.2068C87.5001 61.9868 87.4101 62.6768 87.9001 63.7468V63.7368Z" fill="#706F6F"/>
<path d="M80.66 66.0868L79.42 68.7268C80.37 68.0868 80.66 67.1568 80.66 66.0868Z" fill="#706F6F"/>
<path d="M15.37 8.0868C16.16 7.4168 16.15 7.3368 14.98 6.4068C15.14 7.0668 15.27 7.5968 15.4 8.1168L15.37 8.0868Z" fill="#706F6F"/>
<path d="M14.47 8.4268C14.51 7.7168 14.55 7.0068 14.6 6.2368C13.92 7.1568 13.91 7.5368 14.5 8.4068L14.48 8.4268H14.47Z" fill="#706F6F"/>
<path d="M15.32 5.0368C15.64 5.4968 15.96 5.9568 16.27 6.4168C16.21 5.81014 15.8834 5.36014 15.29 5.0668L15.32 5.0468V5.0368Z" fill="#706F6F"/>
<path d="M15.4 8.1168C15.09 8.2168 14.78 8.3268 14.47 8.4268L14.49 8.4068C14.55 8.6868 14.62 8.9668 14.69 9.2468C14.79 9.1468 14.87 8.9868 14.99 8.9368C15.41 8.7768 15.51 8.4968 15.37 8.0968L15.4 8.1268V8.1168Z" fill="#706F6F"/>
<path d="M44.8 17.6268C44.92 16.8968 44.52 16.6668 43.62 16.5868C44.14 17.0268 44.48 17.3168 44.81 17.6068L44.8 17.6268Z" fill="#706F6F"/>
<g style="mix-blend-mode:multiply">
<path d="M82.72 31.5768C81.1 30.9068 80.53 28.5268 81.66 27.1968C82.35 26.3868 83.47 26.0368 84.53 26.0568C85.59 26.0868 86.62 26.4468 87.6 26.8568C88.39 27.1868 89.2 27.5768 89.7 28.2668C90.21 28.9568 90.31 30.0168 89.7 30.6168C89.3 31.0068 88.72 31.1168 88.17 31.2168C87.53 31.3268 86.88 31.4368 86.24 31.5468C85.29 31.7068 84.29 31.8668 83.38 31.5568C82.47 31.2468 81.69 30.3068 81.92 29.3668" fill="#CCE8F3"/>
</g>
<g style="mix-blend-mode:multiply">
<path d="M9.25995 2.9068C10.26 1.7368 11.91 1.1668 13.42 1.4768C13.03 2.8168 12.41 4.0868 11.59 5.2268C13.37 5.6568 15.27 5.5568 16.99 4.9468C17.05 5.9568 17.09 7.0568 16.51 7.8968C15.94 8.7368 14.5 9.0068 13.95 8.1568C13.71 7.7768 13.68 7.2568 13.32 6.9868C12.81 6.6068 12.11 7.0268 11.66 7.4668C11.21 7.9068 10.65 8.4368 10.04 8.2568C10.2 7.5168 10.36 6.7068 10.01 6.0368C9.54995 5.1368 8.42995 4.8568 7.44995 4.6668C7.90995 3.7568 8.73995 3.0468 9.70995 2.7268" fill="#CCE8F3"/>
</g>
<g style="mix-blend-mode:multiply">
<path d="M107.7 61.3168C107.43 60.8268 107.67 60.1668 108.12 59.8268C108.57 59.4868 109.16 59.4068 109.72 59.4168C111.06 59.4468 112.41 59.9968 113.26 61.0268C114.11 62.0568 114.35 63.6068 113.69 64.7768C113.23 65.5968 112.4 66.1768 112.07 67.0468C111.97 67.2968 111.91 67.5868 111.7 67.7468C111.55 67.8668 111.36 67.8968 111.17 67.9268C109.98 68.0668 108.72 67.7868 107.79 67.0268C106.87 66.2668 106.34 64.9968 106.61 63.8268C106.88 62.6468 107.9 61.6768 107.9 60.4568" fill="#CCE8F3"/>
</g>
<g style="mix-blend-mode:multiply">
<path d="M107.39 26.3968C106.97 25.8068 106.54 25.2168 106.12 24.6368C105.9 24.3268 105.66 23.9868 105.69 23.6068C105.71 23.3868 105.82 23.1868 105.95 23.0068C106.89 21.7868 108.9 22.0668 110.12 23.0268C111.43 24.0568 112.22 25.9768 111.42 27.4368C110.74 28.6768 109.02 29.1668 107.75 28.5568C106.48 27.9468 105.76 26.4168 106.02 25.0268" fill="#CCE8F3"/>
</g>
</svg>
