<svg width="47" height="57" viewBox="0 0 47 57" fill="none" xmlns="http://www.w3.org/2000/svg">
<g clip-path="url(#clip0_633_2)">
<path d="M46.1 28.31H0.85C0.38 28.31 0 27.93 0 27.46V17.12C0 16.65 0.38 16.27 0.85 16.27H46.1C46.57 16.27 46.95 16.65 46.95 17.12V27.46C46.95 27.93 46.57 28.31 46.1 28.31ZM1.7 26.61H45.25V17.97H1.7V26.61Z" fill="#6791A4"/>
<path d="M41.77 56.7H5.17996C4.70996 56.7 4.32996 56.32 4.32996 55.85V27.45C4.32996 26.98 4.70996 26.6 5.17996 26.6H41.77C42.24 26.6 42.62 26.98 42.62 27.45V55.85C42.62 56.32 42.24 56.7 41.77 56.7ZM6.02996 55H40.92V28.3H6.02996V55Z" fill="#6791A4"/>
<path d="M18.5399 56.7C18.0699 56.7 17.6899 56.32 17.6899 55.85V27.45C17.6899 26.98 18.0699 26.6 18.5399 26.6C19.0099 26.6 19.3899 26.98 19.3899 27.45V55.85C19.3899 56.32 19.0099 56.7 18.5399 56.7Z" fill="#6791A4"/>
<path d="M28.39 56.7C27.92 56.7 27.54 56.32 27.54 55.85V27.45C27.54 26.98 27.92 26.6 28.39 26.6C28.86 26.6 29.24 26.98 29.24 27.45V55.85C29.24 56.32 28.86 56.7 28.39 56.7Z" fill="#6791A4"/>
<path d="M32.0499 28.31C31.5799 28.31 31.2 27.93 31.2 27.46V17.12C31.2 16.65 31.5799 16.27 32.0499 16.27C32.5199 16.27 32.9 16.65 32.9 17.12V27.46C32.9 27.93 32.5199 28.31 32.0499 28.31Z" fill="#6791A4"/>
<path d="M14.9 28.31C14.43 28.31 14.05 27.93 14.05 27.46V17.12C14.05 16.65 14.43 16.27 14.9 16.27C15.37 16.27 15.75 16.65 15.75 17.12V27.46C15.75 27.93 15.37 28.31 14.9 28.31Z" fill="#6791A4"/>
<path d="M24.45 17.97C24.28 17.97 24.1199 17.92 23.9799 17.83C23.7799 17.7 23.65 17.49 23.61 17.25C23.56 16.88 22.33 8.18002 26.62 2.85002C29.34 -0.519981 33.1799 -0.589981 35.57 1.08002C37.81 2.66002 39.04 5.95002 36.74 9.74002C33.06 15.8 25 17.86 24.66 17.95C24.59 17.97 24.52 17.98 24.45 17.98V17.97ZM32.0999 1.69002C30.7299 1.69002 29.23 2.32002 27.94 3.91002C24.89 7.69002 25 13.67 25.18 16.01C27.34 15.29 32.66 13.16 35.27 8.86002C37.13 5.81002 36.06 3.51002 34.58 2.47002C33.9 1.99002 33.03 1.69002 32.09 1.69002H32.0999Z" fill="#6791A4"/>
<path d="M24.45 17.97C24.45 17.97 24.42 17.97 24.41 17.97C24.11 17.96 16.91 17.6 13.73 15.05C12.38 13.97 11.74 12.47 11.98 10.94C12.21 9.47001 13.2 8.23001 14.58 7.70001C16.03 7.15001 17.67 7.49001 19.08 8.64001C22.13 11.12 25.07 16.49 25.19 16.72C25.34 16.99 25.33 17.32 25.16 17.58C25 17.83 24.73 17.98 24.44 17.98L24.45 17.97ZM15.99 9.13001C15.71 9.13001 15.44 9.18001 15.18 9.28001C14.39 9.58001 13.79 10.33 13.65 11.19C13.51 12.12 13.91 13.01 14.78 13.71C16.71 15.26 20.66 15.88 22.88 16.12C21.82 14.39 19.89 11.48 18 9.94001C17.34 9.40001 16.64 9.12001 15.98 9.12001L15.99 9.13001Z" fill="#6791A4"/>
</g>
<defs>
<clipPath id="clip0_633_2">
<rect width="46.95" height="56.7" fill="white"/>
</clipPath>
</defs>
</svg>
