<svg width="41" height="57" viewBox="0 0 41 57" fill="none" xmlns="http://www.w3.org/2000/svg">
<g clip-path="url(#clip0_627_9)">
<path d="M8.32006 35.56C3.76006 34.7 0.940058 30.08 2.27006 25.63L6.93006 13.77L17.5901 15.79V28.54C17.2001 33.17 12.8901 36.44 8.33006 35.58L8.32006 35.56Z" stroke="#6791A4" stroke-width="2" stroke-miterlimit="10"/>
<path d="M3.29004 22.74L17.22 26.48" stroke="#6791A4" stroke-width="2" stroke-miterlimit="10"/>
<path d="M8.32003 35.56L5.45003 50.75M5.45003 50.75L1.34003 52.72C0.810033 52.97 0.910033 53.75 1.49003 53.86L7.61003 55.02C8.17003 55.13 8.55003 54.47 8.19003 54.04L5.45003 50.75Z" stroke="#6791A4" stroke-width="2" stroke-miterlimit="10"/>
<path d="M31.8 35.56C36.36 34.7 39.18 30.08 37.85 25.63L33.19 13.77L22.53 15.79V28.54C22.92 33.17 27.23 36.44 31.79 35.58L31.8 35.56Z" stroke="#6791A4" stroke-width="2" stroke-miterlimit="10"/>
<path d="M36.83 22.74L22.9 26.48" stroke="#6791A4" stroke-width="2" stroke-miterlimit="10"/>
<path d="M31.8 35.56L34.67 50.75M34.67 50.75L38.78 52.72C39.31 52.97 39.21 53.75 38.63 53.86L32.51 55.02C31.95 55.13 31.57 54.47 31.93 54.04L34.67 50.75Z" stroke="#6791A4" stroke-width="2" stroke-miterlimit="10"/>
<path d="M10.95 5.21002L15.93 8.84002" stroke="#6791A4" stroke-width="2" stroke-miterlimit="10"/>
<path d="M27.49 5.21002L22.51 8.84002" stroke="#6791A4" stroke-width="2" stroke-miterlimit="10"/>
<path d="M19.13 0V4.99" stroke="#6791A4" stroke-width="2" stroke-miterlimit="10"/>
</g>
<defs>
<clipPath id="clip0_627_9">
<rect width="40.12" height="56.04" fill="white"/>
</clipPath>
</defs>
</svg>
