<svg width="49" height="47" viewBox="0 0 49 47" fill="none" xmlns="http://www.w3.org/2000/svg">
<g clip-path="url(#clip0_627_34)">
<path d="M20.79 14.99C19.57 15.16 18.72 16.29 18.89 17.52L19.04 18.56L18 18.71C16.78 18.88 15.93 20.01 16.1 21.24C16.27 22.46 17.4 23.31 18.63 23.14L24.09 22.36L23.31 16.9C23.14 15.68 22.01 14.83 20.78 15L20.79 14.99Z" stroke="#6791A4" stroke-width="2" stroke-miterlimit="10"/>
<path d="M11.51 9.45997C10.65 9.57997 10.05 10.38 10.17 11.24L10.27 11.97L9.53997 12.07C8.67997 12.19 8.07997 12.99 8.19997 13.85C8.31997 14.71 9.11997 15.31 9.97997 15.19L13.83 14.64L13.28 10.79C13.16 9.92997 12.36 9.32997 11.5 9.44997L11.51 9.45997Z" stroke="#6791A4" stroke-width="2" stroke-miterlimit="10"/>
<path d="M19.0699 33.46L35.3599 17.42C36.1899 16.6 37.5899 16.9 38.0099 17.99L47.6999 43.08C48.1999 44.37 46.9599 45.65 45.6499 45.2L19.6699 36.15C18.5299 35.75 18.2099 34.3 19.0599 33.46H19.0699Z" stroke="#6791A4" stroke-width="2" stroke-miterlimit="10"/>
<path d="M25.11 37.48C26.98 35.84 28.3 37.35 30.16 35.71C32.03 34.07 30.71 32.57 32.58 30.93C34.45 29.29 35.77 30.79 37.64 29.16C39.51 27.53 38.19 26.02 40.07 24.38" stroke="#6791A4" stroke-width="2" stroke-miterlimit="10"/>
<path d="M20.3101 36.13C22.5801 34.12 23.9101 35.61 26.1701 33.6C28.4401 31.58 27.1101 30.09 29.3801 28.07C31.6501 26.05 32.9801 27.55 35.2501 25.53C37.5201 23.51 36.1901 22.02 38.4701 20" stroke="#6791A4" stroke-width="2" stroke-miterlimit="10"/>
<path d="M27.84 16.42C27.9 14.52 29.89 14.58 29.95 12.69C30.01 10.79 28.01 10.74 28.06 8.83999C28.12 6.93999 30.11 6.99999 30.17 5.09999C30.23 3.19999 28.23 3.13999 28.28 1.23999" stroke="#6791A4" stroke-width="2" stroke-miterlimit="10"/>
<path d="M0.170044 20.38C1.44004 20.6 1.10004 22.57 2.38004 22.79C3.65004 23.01 3.99004 21.04 5.26004 21.26C6.53004 21.48 6.20004 23.45 7.47004 23.67C8.74004 23.89 9.08004 21.92 10.36 22.14" stroke="#6791A4" stroke-width="2" stroke-miterlimit="10"/>
<path d="M2.18005 30.21C3.87005 29.96 4.17005 31.93 5.86005 31.68C7.55005 31.43 7.25005 29.45 8.94005 29.19C10.6301 28.94 10.9301 30.91 12.6201 30.66C14.3101 30.41 14.0101 28.43 15.7101 28.17" stroke="#6791A4" stroke-width="2" stroke-miterlimit="10"/>
<path d="M15.38 0.640015C16.21 1.63001 14.67 2.91001 15.5 3.90001C16.33 4.89001 17.86 3.61001 18.69 4.60001C19.52 5.59001 17.98 6.87001 18.81 7.87001C19.64 8.86001 21.17 7.58001 22 8.57001" stroke="#6791A4" stroke-width="2" stroke-miterlimit="10"/>
<path d="M38.48 42.71L45.16 36.57" stroke="#6791A4" stroke-width="2" stroke-miterlimit="10"/>
</g>
<defs>
<clipPath id="clip0_627_34">
<rect width="48.82" height="46.29" fill="white"/>
</clipPath>
</defs>
</svg>
