<svg width="45" height="37" viewBox="0 0 45 37" fill="none" xmlns="http://www.w3.org/2000/svg">
<g clip-path="url(#clip0_627_4)">
<path d="M25.91 0.580002C25.14 -0.189998 23.89 -0.189998 23.12 0.580002L22.47 1.23L21.82 0.580002C21.05 -0.189998 19.8 -0.189998 19.03 0.580002C18.26 1.35 18.26 2.6 19.03 3.37L22.47 6.81L25.91 3.37C26.68 2.6 26.68 1.35 25.91 0.580002Z" fill="#6791A4"/>
<path d="M13.8 35.45C20.8692 35.45 26.6 29.7192 26.6 22.65C26.6 15.5807 20.8692 9.84998 13.8 9.84998C6.73076 9.84998 1 15.5807 1 22.65C1 29.7192 6.73076 35.45 13.8 35.45Z" stroke="#6791A4" stroke-width="2" stroke-miterlimit="10"/>
<path d="M31.14 35.45C38.2092 35.45 43.94 29.7192 43.94 22.65C43.94 15.5807 38.2092 9.84998 31.14 9.84998C24.0707 9.84998 18.34 15.5807 18.34 22.65C18.34 29.7192 24.0707 35.45 31.14 35.45Z" stroke="#6791A4" stroke-width="2" stroke-miterlimit="10"/>
</g>
<defs>
<clipPath id="clip0_627_4">
<rect width="44.94" height="36.45" fill="white"/>
</clipPath>
</defs>
</svg>
