<svg width="144" height="221" viewBox="0 0 144 221" fill="none" xmlns="http://www.w3.org/2000/svg">
<g clip-path="url(#clip0_615_2)">
<path d="M72.88 79.23V79.98H68L38.44 166.89H36.69L3.13 79.98H0V79.23H15.53V79.98C13.27 79.98 11.4 81.11 13.15 85.49L40.45 155.87L60.11 98.14C64.24 85.99 63.12 80.36 58.23 79.98V79.23H72.88Z" fill="#80BACE"/>
<path d="M113.99 219.87H117.12V220.62H101.59V219.87C103.85 219.87 105.22 218.74 104.1 214.36L97.59 197.33H58.39L56.89 201.71C52.76 213.86 53.89 219.49 58.77 219.87V220.62H44.25V219.87H49.13L78.94 132.96H80.44L114 219.87H113.99ZM97.08 196.2L76.92 143.35L58.76 196.2H97.08Z" fill="#80BACE"/>
<path d="M142.89 36.76C142.75 37.24 142.68 37.67 142.49 38.04C142.29 38.44 141.97 38.8 141.66 39.25C141.09 38.82 140.84 38.35 140.99 37.71C141.15 37 141.32 36.28 141.45 35.56C141.5 35.26 141.57 34.91 141.46 34.65C140.98 33.5 140.56 32.31 139.65 31.36C139.48 31.18 139.31 30.99 139.12 30.83C138.31 30.15 138.04 30.19 137.42 31.08C137.38 31.13 137.31 31.17 137.2 31.25C137 31.15 136.77 31.04 136.55 30.94C135.53 30.46 134.93 30.56 134.17 31.4C133.83 31.77 133.53 32.19 133.3 32.62C132.89 33.38 132.99 33.6 133.6 34.25C133.91 34.57 134.15 34.98 134.32 35.38C134.54 35.92 134.66 36.5 134.83 37.07C133.18 37.83 131.84 38.95 130.86 40.55C130.65 40.33 130.54 40.21 130.43 40.09C130.96 39.55 131.02 39.33 130.66 38.8C130.16 38.07 129.43 37.57 128.53 37.4C127.41 37.18 127.13 36.15 126.34 35.62C126.16 35.5 126.17 35.02 126.25 34.73C126.58 33.39 125.72 32.54 124.93 31.64C124.81 31.51 124.68 31.39 124.49 31.21C125.46 29.91 124.75 28.92 123.76 28.05C123.2 27.56 122.57 27.11 121.89 26.76C120.8 26.19 119.62 26.7 119.19 27.83C118.71 29.09 119.19 30.22 119.63 31.35C119.66 31.44 119.75 31.55 119.84 31.58C120.75 31.87 121.65 32.17 122.57 32.41C122.75 32.46 123.05 32.25 123.24 32.1C123.46 31.92 123.63 31.68 123.92 31.37C125.01 32.48 125.96 33.53 125.44 35.23C124.73 34.95 124.05 34.71 123.39 34.43C122.67 34.13 121.91 34.05 121.21 34.37C120.27 34.8 119.22 35.2 118.51 35.87C117.27 37.03 117.58 37.83 118.71 38.42C119.4 38.78 119.62 39.27 119.75 39.88C119.87 40.49 119.7 40.75 118.83 41.46C119.04 41.8 119.25 42.16 119.53 42.62C118.38 44.45 117.33 46.41 115.96 48.16C114.91 49.49 114.62 51.09 113.64 52.41C113.37 52.78 113.19 53.21 112.87 53.8C112.89 51.8 112.91 50.04 112.94 48.2C112.32 48 112.25 47.46 112.25 46.89C112.26 46.03 112.35 45.17 112.31 44.31C112.26 43.42 112.6 42.46 111.86 41.64C111.64 41.4 111.74 40.92 111.69 40.55C111.77 40.47 111.84 40.38 111.93 40.3C112.13 40.46 112.32 40.63 112.6 40.85C112.6 40.43 112.61 40.05 112.62 39.51C112.26 39.8 112.05 39.96 111.78 40.18C111.4 39.54 111.67 38.97 111.73 38.41C111.8 37.76 111.87 37.11 111.95 36.46C112.16 34.81 112.38 33.15 112.59 31.5C112.71 30.57 112.78 29.64 112.9 28.72C112.94 28.41 112.97 28.08 113.12 27.82C113.54 27.08 113.96 26.33 114.48 25.64C115.31 24.55 116.22 23.51 117.1 22.46C118.22 21.11 119.06 19.64 119.58 18.01C119.79 17.35 120.09 16.71 120.38 15.98C121.11 16.39 121.65 16.98 122.59 16.79C122.47 16.19 121.91 16.25 121.55 15.99C121.59 15.75 121.64 15.49 121.69 15.18C121.37 15.09 121.06 15 120.7 14.89C120.72 14.3 120.73 13.74 120.74 13.18C121.31 14.44 122.21 15.16 123.8 15.33C123.49 14.08 123.95 12.94 123.59 11.82C123.55 11.69 123.74 11.44 123.88 11.3C124.38 10.82 124.91 10.38 125.41 9.90999C125.51 9.81999 125.57 9.68999 125.65 9.57999C124.51 9.11999 124.38 9.17999 123.75 10.43C122.84 9.85999 121.94 9.29999 120.95 8.67999C120.87 8.23999 121.77 7.82999 121.3 7.24999C121.01 6.89999 120.72 6.51999 120.35 6.25999C119.99 6.01999 119.53 5.91999 119.19 6.47999C119.67 6.95999 120.58 7.11999 120.53 8.07999C120.24 7.97999 120 7.89999 119.88 7.85999C119.72 8.37999 119.56 8.91999 119.4 9.43999C118.2 9.30999 117.99 9.13999 118.12 8.23999C118.28 7.08999 118.61 5.98999 119.9 5.38999C120.15 5.27999 120.34 5.04999 120.48 4.71999C120.26 4.77999 120.02 4.79999 119.84 4.89999C119.59 5.04999 119.4 5.28999 119.16 5.44999C118.61 5.79999 118.08 6.24999 117.33 5.96999C117.26 5.94999 117.14 6.04999 116.92 6.13999C117.19 6.40999 117.42 6.63999 117.68 6.90999C117.48 7.77999 117.06 8.55999 116.39 9.23999C115.32 8.91999 116.08 8.30999 116.06 7.82999C115.64 7.47999 115.21 7.12999 114.67 6.67999L115.64 6.41999L115.34 5.37999C115.1 5.38999 114.85 5.39999 114.66 5.40999C114.59 6.10999 114.53 6.74999 114.46 7.40999C114.72 7.77999 115.3 7.97999 115.36 8.59999C114.63 8.47999 114.4 7.57999 113.52 7.78999C113.56 8.40999 114.56 8.60999 114.11 9.46999C113.78 9.25999 113.46 9.12999 113.24 8.90999C112.79 8.46999 112.38 7.97999 111.96 7.50999C111.72 7.23999 111.47 7.12999 111.18 7.36999C111.33 8.01999 111.45 8.59999 111.61 9.17999C111.63 9.24999 111.81 9.27999 111.92 9.32999C111.99 9.91999 112.05 10.51 112.12 11.17C110.96 10.62 110.69 9.37999 109.61 8.86999C109.48 8.80999 109.47 8.37999 109.54 8.14999C109.62 7.85999 109.95 7.60999 109.97 7.32999C109.99 7.04999 109.76 6.75999 109.67 6.55999C110.43 6.10999 111.14 5.68999 111.84 5.26999C111.84 4.65999 111.73 4.04999 112.41 3.53999C112.74 3.65999 113.1 3.79999 113.47 3.93999L115.02 4.51999C114.68 4.20999 114.37 3.84999 113.97 3.61999C112.26 2.63999 111.74 2.79999 111.13 4.54999C110.94 5.09999 110.56 5.32999 110.04 5.49999C109.17 5.76999 109.17 5.77999 108.36 6.59999C108.6 6.78999 108.83 6.97999 109.1 7.19999C109.07 7.30999 109.06 7.46999 108.98 7.56999C108.39 8.28999 108.63 8.79999 109.2 9.46999C109.91 10.32 110.66 11.09 111.69 11.58C112.31 11.87 112.96 12.12 113.64 12.27C114.62 12.48 114.69 12.46 114.53 13.43C114.26 15.08 113.93 16.72 113.64 18.37C113.57 18.75 113.47 19.13 113.46 19.51C113.44 20.88 113.12 22.2 112.71 23.51C112.58 23.93 112.51 24.36 112.54 24.82C112.73 24.38 112.91 23.94 113.13 23.42C113.39 24.55 113.39 25.06 112.94 25.83C111.87 27.69 111.35 29.67 111.22 31.74C111.2 32.07 111.12 32.4 110.97 32.75C109.66 30.93 108.13 29.28 107.54 27.12C107.18 25.78 106.73 24.46 106.35 23.13C106.01 21.96 106.68 21.24 107.98 21.33C108.13 21.33 108.27 21.36 108.38 21.37C108.74 20.84 109.08 20.34 109.41 19.84C109.98 18.97 109.98 18.81 109.46 17.69C109.67 17.61 109.87 17.52 110.15 17.41C109.86 17.11 109.63 16.87 109.35 16.57C109.97 16.08 110.95 15.97 110.93 14.97C110.85 14.86 110.76 14.67 110.61 14.52C109.93 13.85 109.27 13.18 108.88 12.3C108.78 12.07 108.41 11.82 108.14 11.81C107.09 11.75 106.2 11.36 105.34 10.87C105.18 10.78 104.96 10.81 104.55 10.76C104.77 11.07 104.84 11.28 104.99 11.36C105.54 11.64 106.11 11.91 106.7 12.11C107.5 12.39 108.19 12.71 108.39 13.59C108.44 13.81 108.76 13.99 109 14.13C109.49 14.42 110.02 14.66 110.75 15.04C110 15.32 109.46 15.51 108.97 15.69C108.19 15.16 107.46 14.66 106.77 14.19C105.95 14.62 106.82 15.05 106.55 15.44C105.47 15.12 104.39 14.81 103.45 14.54C102.87 14.81 103.1 15.62 102.28 15.43C102.22 14.84 102.67 14.42 102.97 13.96C103.05 13.84 103.36 13.82 103.57 13.78C103.75 13.75 104.05 13.83 104.1 13.76C104.62 12.97 105.42 13.14 106.37 13.25C105.71 12.44 104.77 12.59 104.07 12.13C103.79 12.75 103.34 13.08 102.69 13.24C102.4 13.31 102.14 13.69 101.98 13.98C101.42 15 100.91 16.04 100.26 17.07C99.71 15.69 99.58 14.25 99.4 12.81C99.22 11.34 99.04 9.86999 98.85 8.35999C99.21 8.13999 99.69 7.91999 100.1 7.60999C101.8 6.28999 101.52 4.56999 100.01 3.56999C99.31 3.10999 98.51 2.81999 97.52 2.77999C97.02 3.70999 96.49 4.62999 96.02 5.56999C95.92 5.76999 95.93 6.05999 96 6.26999C96.43 7.44999 97.39 8.21999 98.51 9.15999C98.83 11.68 98.22 14.5 99.05 17.2C99.14 16.94 99.23 16.69 99.38 16.28C99.86 17.4 100.27 18.35 100.68 19.3C100.56 19.83 100.39 20.35 100.34 20.88C100.26 21.74 100.29 22.61 100.21 23.47C100.14 24.35 100.08 25.24 99.41 26.1C99.3 25.08 99.19 24.17 99.09 23.25C99.02 23.97 98.95 24.69 98.87 25.49C98.7 25.38 98.53 25.31 98.43 25.19C96.75 23.23 95.08 21.26 93.39 19.31C92.84 18.67 92.6 17.96 92.56 17.12C92.39 13.93 92.37 10.75 92.88 7.56999C92.91 7.39999 92.93 7.20999 92.88 7.04999C92.72 6.45999 93.01 6.10999 93.48 5.71999C94.45 4.92999 94.92 3.93999 94.59 2.72999C94.28 1.60999 93.33 1.16999 92.29 0.829987C91.95 0.719987 91.61 0.829987 91.49 1.21999C91.42 1.45999 91.35 1.68999 91.27 1.94999C90.69 1.68999 90.34 1.52999 89.83 1.29999C89.69 2.64999 89.28 3.84999 89.6 5.08999C89.8 5.82999 90.41 6.26999 91.09 6.52999C91.88 6.83999 92.02 7.32999 91.88 8.01999C91.41 10.33 91.56 12.65 91.57 14.97C91.57 15.62 91.68 16.26 91.77 17.18C91.4 16.84 91.18 16.69 91.04 16.5C89.42 14.32 87.82 12.13 86.21 9.95999C85.85 9.47999 85.42 9.04999 85.04 8.57999C84.86 8.34999 84.54 8.14999 84.88 7.77999C84.95 7.69999 84.85 7.43999 84.76 7.29999C84.39 6.74999 83.99 6.22999 83.51 5.72999C83.84 6.31999 84.16 6.91999 84.6 7.70999C83.69 7.04999 82.79 5.64999 82.55 4.68999C83.57 4.35999 83.84 3.94999 83.63 2.99999C83.53 2.55999 83.36 2.13999 83.21 1.70999C82.9 0.849987 82.25 0.339987 81.28 0.179987C80.99 0.129987 80.69 0.0699867 80.4 0.0199867C79.31 -0.160013 78.79 0.0599867 78.25 0.939987C77.67 1.87999 77.1 2.82999 76.95 4.05999C77.55 4.40999 78.17 4.84999 78.86 5.14999C80.17 5.70999 80.76 5.43999 81.22 4.00999C81.87 5.12999 82.43 6.12999 83.05 7.10999C83.69 8.11999 84.39 9.07999 85.06 10.07C85.71 11.03 86.35 12 87.02 12.95C87.71 13.92 88.43 14.88 89.14 15.85C88.32 15.72 82.9 12.56 80.5 10.82C80.51 10.49 80.65 10.09 80.5 9.83999C80.35 9.57999 79.87 9.51999 79.63 9.28999C79.16 8.82999 78.76 8.31999 78.25 7.72999C79.09 7.38999 79.48 7.96999 79.99 8.09999C80.56 8.24999 81.11 8.40999 81.64 8.55999C82.36 7.42999 82.27 6.92999 81.19 6.45999C80.67 6.23999 80.05 6.16999 79.46 6.15999C78.94 6.15999 78.54 6.40999 79.17 7.12999C78.54 6.85999 78.19 6.67999 77.81 6.55999C77.55 6.47999 77.26 6.49999 76.99 6.46999C76.99 6.71999 77 6.96999 77.01 7.21999C77.01 7.28999 77.03 7.34999 77.06 7.46999C76.77 7.73999 76.46 8.02999 75.99 8.47999C76.02 8.02999 76.03 7.75999 76.05 7.48999C74.42 7.51999 73.73 9.03999 74.54 10.74C74.45 10.86 74.35 11.01 74.25 11.15C73.98 11.52 74.07 11.83 74.46 12.03C75.36 12.49 76.23 13.05 77.34 13.03C77.88 13.02 78.4 13.46 78.96 13.07C79.39 13.27 79.8 13.61 80.41 13.28L80.07 12.12C80.61 12.34 80.98 12.45 81.31 12.64C81.94 13.01 82.53 13.42 83.15 13.81C83.76 14.19 84.35 14.53 85.15 14.62C85.74 14.68 86.3 15.09 86.83 15.39C87.9 16 88.98 16.62 90.01 17.3C90.58 17.67 91.14 18.11 91.53 18.63C92.61 20.07 93.55 21.59 94.64 23.02C95.64 24.33 96.78 25.56 97.86 26.82C97.91 26.88 98.03 26.89 98.24 26.96C97.16 25.46 95.64 24.38 95.01 22.45C95.42 22.79 95.67 22.99 95.9 23.21C96.14 23.43 96.37 23.65 96.57 23.9C97.17 24.64 97.78 25.38 98.34 26.15C98.92 26.94 99.18 27.78 98.89 28.79C98.7 29.45 98.7 30.16 98.7 30.85C98.67 35.47 98.36 40.07 97.72 44.66C97.6 45.49 97.52 46.32 97.41 47.14C97.34 47.58 97.24 48.02 97.12 48.64C96.9 48.4 96.74 48.3 96.71 48.18C96.43 46.95 95.64 46.01 94.81 45.08C92.34 42.3 89.88 39.51 87.42 36.72C87.26 36.54 87.12 36.33 87.03 36.21C87.19 35.65 87.33 35.16 87.5 34.54C86.89 34.96 86.65 34.74 86.43 34.3C86.58 34.27 86.71 34.26 86.84 34.23C87.57 34.06 87.75 33.77 87.36 33.22C87 32.71 86.52 32.28 86.04 31.74C86.55 31.5 87.01 31.29 87.62 31C87.31 30.68 87.09 30.36 86.78 30.18C85.89 29.68 85.05 29.13 84.34 28.41C84.09 28.16 83.69 28.04 83.34 27.85C82.92 28.62 83.69 28.82 83.9 29.23C83.38 29.88 82.76 28.94 82.19 29.47C82.38 29.74 82.56 30 82.79 30.33C82.42 30.79 82.04 31.3 82.79 31.87C83 31.78 83.27 31.65 83.6 31.51C83.8 32.12 84.05 32.62 83.84 33.26C83.71 33.68 83.9 34.19 83.95 34.7C83.12 34.65 82.81 33.81 82.04 33.55C81.93 33.74 81.83 33.92 81.72 34.12C82.36 34.6 83.21 34.8 83.75 35.66L81.98 35.36C82.44 35.93 83.28 36.29 84.17 36.33C84.36 36.33 84.54 36.33 84.73 36.33C85.5 36.33 86.01 36.62 86.47 37.22C87.85 39.01 89.35 40.71 90.76 42.47C92.64 44.81 94.52 47.14 95.76 49.87C96.23 50.91 96.35 51.84 95.99 52.95C95.07 55.83 94.35 58.75 93.43 61.63C92.48 64.61 91.39 67.55 90.34 70.5C90.12 71.11 90.12 71.82 89.44 72.26C89.33 72.33 89.37 72.58 89.33 72.74C89.14 73.45 88.9 74.14 88.3 74.72C88.25 74.31 88.2 73.93 88.15 73.56C87.4 74.56 87.39 75.74 86.59 76.85C86.14 76.31 85.71 75.93 85.46 75.46C82.94 70.89 79.74 66.7 77.03 62.24C75.96 60.48 74.95 58.67 73.88 56.91C73.32 55.98 72.68 55.1 72.07 54.19C71.38 53.17 70.71 52.14 70.67 50.87C70.67 50.77 70.62 50.67 70.59 50.57C69.77 48.47 69.79 46.22 69.45 44.04C69.12 41.96 68.97 39.85 68.7 37.76C68.49 36.08 68.75 34.43 69.3 32.82C70.06 30.58 70.58 28.31 70.7 25.97C70.73 25.39 70.87 24.79 71.09 24.24C71.24 23.87 71.53 23.43 71.89 23.26C72.89 22.79 73.38 22 73.84 21.15C73.89 21.06 73.98 20.99 74.05 20.92C74.5633 21.36 74.5433 21.9467 73.99 22.68C74.73 23 75.26 22.85 75.42 22.21C75.5 21.89 75.54 21.47 75.39 21.2C74.67 19.97 74.07 18.66 72.92 17.69C72.33 17.19 71.73 16.86 70.91 17.18C70.53 17.33 70.21 17.29 69.86 17.09C69.74 17.01 69.47 17.14 69.27 17.18C69.26 17.35 69.3 17.59 69.21 17.65C68.56 18.05 67.86 18.21 67.07 18.06C66.07 17.87 64.96 18.83 65.03 19.92C65.44 19.55 65.78 19.25 66.12 18.95C66.54 18.59 66.93 18.36 67.61 18.42C68.33 18.48 69.17 18.49 69.81 17.84C70.31 18.02 70.79 18.27 71.3 17.79C71.42 17.68 71.94 17.76 72.11 17.92C72.69 18.47 73.41 18.94 73.7 19.82C72.94 19.95 72.24 19.96 71.62 19.65C71.14 19.41 70.77 19.55 70.32 19.75C70.43 20.24 70.53 20.71 70.68 21.39C71.08 20.92 71.33 20.62 71.63 20.27C72.37 20.86 71.73 21.52 71.78 22.11C71.13 22.52 70.53 22.2 69.97 21.99C69.4 21.77 68.87 21.41 68.41 21.03C68.21 20.87 68.23 20.49 68.13 20.16C67.44 20.24 67.14 20.9 66.51 21.26C66.17 21.11 65.79 20.95 65.41 20.79C65.38 20.82 65.36 20.86 65.33 20.89C65.75 21.3 66.17 21.71 66.68 22.2C67.01 21.85 67.33 21.5 67.77 21.03C68.15 21.67 68.49 22.22 68.82 22.77C68.92 22.95 68.95 23.21 69.11 23.31C69.95 23.86 69.72 24.62 69.62 25.38C69.18 28.78 68.29 32.08 67.13 35.34C67.03 35.62 66.87 35.89 66.66 36.32C65.52 35.2 65.28 33.84 64.7 32.65C64.11 31.44 63.6 30.19 63.02 28.9C63.62 28.66 64.2 28.55 64.06 27.88C64.05 27.82 64.45 27.67 64.67 27.56C64.77 27.65 64.87 27.79 64.97 27.78C65.63 27.76 65.74 27.19 66.02 26.8C66.26 26.47 66.24 26.14 65.9 25.88C65.87 25.86 65.85 25.83 65.81 25.81C64.62 25.05 63.69 24.03 62.56 23.21C62.15 22.91 61.57 22.79 60.93 22.53C61.24 20.97 60.52 19.25 61.72 17.69C62.01 17.31 61.96 16.91 61.69 16.52C61.45 16.18 61.27 15.79 61.02 15.45C60.28 14.42 59.84 14.39 58.74 15.39C58.45 15.19 58.13 14.99 57.83 14.77C57.55 14.56 57.31 14.25 56.8 14.54C56.74 14.9 57 15.37 56.54 15.72C56.45 15.79 56.6 16.17 56.7 16.38C56.99 16.97 57.29 17.55 57.64 18.11C58.14 18.92 59.03 18.9 59.98 18.86C60.07 20.55 60.71 22.21 59.52 23.88C58.89 23.73 58.33 23.55 57.75 23.45C56.94 23.3 56.29 23.91 56.55 24.63C56.75 25.17 57.1 25.65 57.79 25.97C58.19 25.05 56.99 24.94 56.97 24.31C57.14 23.94 57.5 23.98 57.82 24.04C58.11 24.1 58.4 24.18 58.67 24.3C59.23 24.55 59.65 24.44 60.06 23.99C60.46 23.55 60.92 23.2 61.62 23.32C62.13 23.41 62.48 23.63 62.45 24.12C62.42 24.66 62.32 25.21 62.18 25.74C62.04 26.28 61.81 26.79 61.65 27.32C61.49 27.82 61.22 27.96 60.74 27.69C60.21 27.39 59.72 27.02 59.22 26.69C59.03 27.29 59.04 27.3 60.18 28.41C59.76 28.57 59.35 28.73 58.93 28.88C57.53 29.37 56.58 28.84 56.4 27.49C56.37 27.31 56.3 27.13 56.23 26.89C55.29 27.52 56.27 28.52 55.31 29.14C56.19 29.39 56.89 29.59 57.71 29.82C58.43 30.31 57.8 31.2 58.09 31.91C58.37 32.6 58.38 33.39 58.55 34.12C58.73 34.88 58.98 35.62 59.23 36.48C58.93 36.43 58.82 36.43 58.74 36.39C57.26 35.52 55.8 34.64 54.31 33.79C53.66 33.42 53.42 32.97 53.54 32.24C53.69 31.33 53.4 30.43 52.62 29.91C51.67 29.28 50.47 29.08 49.31 28.89C48.8 28.81 48 29.33 47.57 29.83C47.83 29.85 48.03 29.91 48.21 29.87C48.42 29.82 48.61 29.61 48.81 29.59C49.16 29.55 49.58 29.51 49.85 29.66C50 29.74 49.95 30.23 49.86 30.5C49.69 31.03 49.43 31.53 49.18 32.09C48.62 31.79 48.16 31.55 47.7 31.29C47.23 31.03 46.78 30.73 46.29 30.51C46 30.38 45.64 30.39 45.32 30.32C44.51 30.15 44.22 29.89 44.31 29.44C44.41 28.94 45.06 28.55 45.71 28.62C46.04 28.65 46.36 28.73 46.97 28.85C46.64 28.52 46.52 28.32 46.33 28.23C45.42 27.82 43.98 28.33 43.7 29.22C43.6 29.54 43.87 29.95 44.03 30.56C43.9366 30.9533 44.0866 31.49 44.48 32.17C44.44 32.22 44.38 32.32 44.35 32.32C42.77 32.13 41.19 32.77 39.6 32.42C39.01 32.29 38.5 32.15 38.01 31.77C37.39 31.3 36.64 30.94 35.88 30.68C35.06 30.39 34.23 30.58 33.61 31.22C32.93 31.92 32.67 32.74 32.98 33.64C33.03 33.79 33.16 33.96 33.3 34.04C34.01 34.41 34.72 34.81 35.47 35.09C36.86 35.6 37.88 35.13 38.42 33.81C38.54 33.52 38.65 33.24 38.75 33C40.82 33.31 42.81 33.61 44.8 33.91C44.85 33.91 44.91 33.83 45.09 33.7C44.15 33.53 43.31 33.38 42.46 33.23C42.47 33.15 42.49 33.07 42.5 33C44 33.11 45.52 33 47.06 33.5C46.95 34.11 47.33 34.45 47.87 34.75C48.41 35.04 48.86 35.19 49.54 34.96C50.06 34.78 50.72 34.91 51.31 34.97C52.15 35.07 52.79 34.84 53.25 34.1C53.51 34.22 53.74 34.31 53.95 34.43C55.01 35.01 56.06 35.6 57.12 36.17C58.86 37.11 60.23 38.31 61.07 40.08C62.03 42.09 63.21 44.01 64.32 45.95C64.57 46.39 64.91 46.78 65.33 47.13C65.1 46.66 64.86 46.2 64.63 45.73C65.42 46.12 66.68 48.4 66.95 49.55C64.41 49.35 56.26 46.72 54.67 45.58C54.67 44.91 55.49 44.3 54.96 43.62C54.79 43.39 54.38 43.32 54.06 43.19C53.64 42.57 52.99 42.04 53.38 41.06C52.54 41.29 51.84 40.61 51.02 41.23C51.51 41.33 51.88 41.41 52.26 41.5C52.26 41.57 52.24 41.64 52.24 41.72C52.01 41.78 51.78 41.89 51.56 41.89C51.25 41.89 50.92 41.59 50.63 41.93C50.38 42.23 50.14 42.54 49.96 42.88C49.85 43.08 49.84 43.34 49.8 43.56C49.29 43.56 48.82 43.54 48.36 43.58C48.3 43.58 48.26 43.86 48.2 44.03C49.1066 44.1033 49.7666 44.2933 50.18 44.6C49.59 45.21 49.56 45.21 48.17 44.45C48.17 44.61 48.12 44.8 48.17 44.84C49.03 45.35 49.18 46.28 49.68 47C50.35 47.96 50.99 48.04 51.75 47.1C52.37 46.34 53.03 46.09 53.97 46.46C54.35 46.61 54.75 46.69 55.14 46.83C58.41 47.99 61.69 49.14 64.95 50.31C65.75 50.59 66.55 50.89 67.34 51.2C68.1 51.49 68.58 52 68.89 52.72C69.89 55.02 71.06 57.24 72.41 59.38C74.32 62.41 76.07 65.51 77.96 68.55C78.85 69.97 79.91 71.3 80.88 72.68C81.07 72.96 81.34 73.32 81.29 73.59C81.1 74.54 81.56 75.27 81.97 76.04C82.26 76.59 82.76 77.05 82.65 77.74C82.64 77.83 82.74 77.92 82.79 78.01C83.29 78.88 83.89 79.71 84.27 80.63C84.54 81.28 84.61 82.05 84.57 82.75C84.49 84.1 84.1 85.41 83.58 86.7C81.85 90.98 80.25 95.31 78.49 99.58C77.29 102.48 75.85 105.3 74.59 108.19C73.32 111.11 72.17 114.06 70.93 116.99C70.02 119.14 69.06 121.26 68.11 123.4C67.98 123.7 67.82 124.02 67.65 124.37C67.48 125.83 67.18 127.25 66.73 128.64C66.75 128.73 66.79 128.8 66.79 128.9C66.76 130.46 66.79 132.02 66.77 133.58C66.77 133.77 66.68 133.96 66.62 134.22C66.01 133.99 65.48 133.64 64.92 133.6C64.78 133.6 64.64 133.57 64.5 133.55C64.5 133.55 64.5 133.56 64.49 133.57C65.95 134.65 67.41 135.8 68.87 136.94C68.93 135.71 69.09 134.49 69.25 133.26C69.02 130.76 69.16 128.23 69.66 125.78C69.55 125.85 69.46 125.94 69.33 126.01C69.12 125.62 69.38 125.29 69.51 124.96C70.32 122.93 71.14 120.9 71.97 118.87C72.36 117.92 72.74 116.97 73.14 116.03C74.21 113.49 75.28 110.95 76.38 108.42C77.47 105.92 78.65 103.47 80.44 101.28C81.66 99.78 82.37 98.03 82.78 96.2C83.23 94.22 83.58 92.23 84.15 90.28C84.7 88.36 85.41 86.49 86.58 84.76C87.26 83.75 87.74 82.64 88.33 81.58C88.58 81.13 88.91 80.72 89.19 80.29C90.33 80.86 90.26 80.86 90.21 81.89C90.17 82.9 90.72 83.7 91.54 84.34C92.06 84.05 91.84 83.78 91.63 83.54C91.21 83.05 90.88 82.59 91.13 81.85C91.27 81.47 91.05 80.87 90.77 80.54C90.49 80.2 89.93 80.07 89.38 79.78C89.59 79.49 89.76 79.15 90.03 78.89C91.88 77.03 93.66 75.1 95.64 73.36C97.74 71.51 99.66 69.53 101.62 67.58C102.39 66.81 103.23 66.09 104.09 65.41C105.48 64.31 106.91 63.27 108.32 62.2C109.95 60.97 110.97 59.32 111.95 57.66C112.56 56.62 113.12 55.55 113.69 54.51C114.67 54.63 115.42 54.3 116.15 53.85C117.28 53.15 118.38 52.39 119.58 51.81C122.47 50.41 124.92 48.62 126.49 45.92C126.6 45.74 126.73 45.57 126.84 45.41C127.9 45.6 128.92 45.82 129.95 45.94C130.57 46.01 131.22 45.96 131.86 45.9C132.24 45.87 132.61 45.72 132.5 45.2C130.87 45.37 129.35 44.86 127.75 44.87C127.77 44.77 127.78 44.68 127.79 44.58C128.07 44.59 128.35 44.6 128.68 44.62C128.88 44.37 129.09 44.11 129.29 43.86C129.43 43.87 129.54 43.86 129.57 43.89C130.22 44.68 131.02 45.02 132.09 44.61C132.73 44.36 133.01 44.94 133.48 45.07C134.68 44.08 134.81 43.11 133.74 42.05C133.82 42.44 133.87 42.7 133.93 42.97C133.79 43.02 133.68 43.11 133.59 43.09C132.72 42.91 133.12 42.32 133.18 41.82C132.86 41.53 132.54 41.25 132.23 40.95C131.72 40.44 131.7 40.25 132.22 39.71C132.57 39.35 132.99 39.04 133.43 38.77C133.83 38.52 134.29 38.35 134.81 38.1C135 38.29 135.2 38.47 135.38 38.67C135.83 39.17 136.23 39.72 136.73 40.17C137.34 40.73 137.82 40.74 138.68 40.3C138.04 39.65 136.83 39.6 136.56 38.47C136.9 38.73 137.15 38.92 137.41 39.12C137.43 39.07 137.44 39.02 137.46 38.97C138.38 39.19 139.34 39.33 140.22 39.66C141.22 40.02 141.81 39.47 142.42 38.97C143.04 38.46 143.38 37.8 143.15 37.01C143.13 36.93 143.01 36.88 142.84 36.72L142.89 36.76ZM120.84 30.64C120.6 30.68 120.17 30.57 120.09 30.42C119.76 29.82 119.52 29.17 120.01 28.4C120.98 28.62 121.58 29.21 122.17 29.86C121.83 30.34 121.36 30.58 120.85 30.65L120.84 30.64ZM117.24 10.24C117.63 10.66 117.88 11.04 118.24 11.31C118.64 11.6 119.15 11.77 119.59 12.02C119.77 12.12 119.99 12.31 120 12.47C120.04 13.39 120 14.31 119.45 15.27C118.79 14.86 118.99 14.45 119.09 14.06C119.19 13.64 119.43 13.22 119.09 12.83C117.94 12.9 116.99 13.57 115.85 13.69C115.92 12.34 116.61 11.36 117.24 10.24ZM115.79 14.15C116.31 14.27 116.72 14.53 117.16 15.07C116.56 15 116.17 14.95 115.79 14.91C115.54 15.57 115.65 15.92 116.19 16.06C116.65 16.18 117.13 16.23 117.58 15.9C118.17 15.48 118.81 15.52 119.54 15.77C118.95 17.2 118.13 18.44 117.27 19.67C116.91 20.19 116.66 20.77 116.36 21.33C116.78 21 117.21 20.66 117.63 20.33C117.68 20.38 117.74 20.44 117.79 20.49C117.43 20.88 117.09 21.29 116.7 21.66C116.44 21.9 116.33 21.72 116.28 21.48C115.62 22.48 115.16 23.6 114.17 24.45C113.75 22.36 114.8 15.72 115.8 14.15H115.79ZM97.93 7.57999C97.2 7.13999 96.65 6.42999 96.58 5.91999C96.51 5.42999 96.75 5.15999 97.3 5.09999C97.63 5.05999 97.97 5.00999 98.43 4.94999C98.26 5.83999 98.11 6.65999 97.93 7.58999V7.57999ZM97.43 4.37999C97.56 3.63999 97.96 3.56999 98.46 3.67999C99.6 3.91999 100.21 4.41999 100.3 5.23999C99.54 4.39999 98.66 3.98999 97.43 4.37999ZM77.5 10.68C77.31 10.06 77.29 10.05 76.55 9.97999C77.01 10.83 77.55 11.67 76.51 12.49C76.1166 12.27 76.0633 11.8867 76.35 11.34C75.67 10.11 76.02 9.07999 77.41 8.41999C78.02 8.85999 78.45 9.41999 78.55 10.16C78.34 10.3 78.17 10.41 77.91 10.58C78.35 11 78.74 11.38 79.13 11.77C78.13 11.81 77.78 11.57 77.5 10.68ZM91.88 3.12999C91.03 4.06999 92.06 4.82999 91.75 5.57999C90.96 5.28999 90.52 4.66999 90.55 3.86999C90.57 3.21999 90.92 2.74999 91.44 2.68999C92.05 2.61999 92.54 3.06999 92.68 3.73999C92.75 4.10999 92.94 4.44999 93.12 4.89999C93.01 4.96999 92.78 5.11999 92.42 5.34999C92.24 4.58999 92.09 3.96999 91.89 3.12999H91.88ZM84.48 32.42C84.28 32.21 84.07 31.83 84.14 31.6C84.33 31.05 84.69 30.55 85.03 29.94C85.54 30.22 85.92 30.44 86.34 30.68C86.18 30.81 86.13 30.87 86.07 30.9C84.9 31.4 84.76 31.78 85.39 32.75C85.56 33 85.72 33.25 85.88 33.5C85.34 33.19 84.86 32.84 84.47 32.42H84.48ZM57.59 17.04C57.68 16.48 57.74 16.06 57.82 15.55C58.7133 15.7567 59.2066 16.1933 59.3 16.86C58.77 16.91 58.25 16.97 57.59 17.03V17.04ZM33.48 33.33C33.77 32.68 33.94 32.07 34.3 31.57C34.71 31 35.15 31.11 35.6 31.78C35.25 31.92 34.91 32.06 34.44 32.25C35.42 32.53 36.41 31.71 37.21 32.63C36.11 33.58 34.92 33.63 33.48 33.33ZM44.66 31.56C45.54 31.06 46.26 31.37 47.19 32.69C46.35 32.34 45.26 32.43 44.66 31.56ZM50.22 33.83C49.95 33.8 49.63 33.85 49.43 33.73C48.54 33.18 47.65 32.61 46.98 31.52C47.77 31.85 48.4 32 48.9 32.33C49.42 32.67 49.83 33.18 50.28 33.61L50.22 33.83ZM52.99 42.78C52.43 43.29 52.2 43.93 52.07 44.62C51.98 45.1 51.83 45.57 51.76 46.05C51.67 46.65 51.36 47.08 50.75 47.32C50.03 47.0667 49.64 46.5933 49.58 45.9C49.86 45.78 50.17 45.67 50.46 45.52C51.3 45.07 51.35 44.47 50.63 43.92C50.52 43.84 50.42 43.74 50.2 43.57C50.39 43.33 50.53 42.96 50.76 42.9C51.49 42.71 52.24 42.44 52.99 42.78ZM68.32 46.04C67.6 46.58 67.69 47.22 67.88 47.91C67.91 48.02 67.81 48.17 67.7 48.51C67.37 48.04 67.09 47.74 66.94 47.38C66.61 46.6 66.5 45.71 66.05 45.01C64.52 42.59 62.93 40.19 61.25 37.85C60.41 36.68 59.8 35.47 59.57 34.08C59.44 33.26 59.4 32.39 59.06 31.65C58.4 30.22 58.84 29.22 60.2 28.43C60.54 28.71 60.84 29.06 61.23 29.27C61.83 29.59 62.29 29.99 62.55 30.59C63.39 32.53 64.22 34.48 65.12 36.4C65.41 37.01 65.81 37.61 66.31 38.08C66.7 38.45 67 38.78 66.97 39.3C66.88 40.79 67.39 42.15 67.84 43.53C68.05 44.15 68.19 44.8 68.34 45.44C68.38 45.63 68.42 45.94 68.3 46.03L68.32 46.04ZM79.78 69.42C78.47 67.23 77.14 65.05 75.83 62.86C74.16 60.07 72.49 57.27 70.84 54.48C70.63 54.13 70.5 53.75 70.33 53.38C70.81 53.79 71.24 54.22 71.55 54.72C72.71 56.55 73.83 58.41 74.98 60.25C76.72 63.04 78.46 65.83 80.2 68.63C80.71 69.46 81.21 70.29 81.71 71.12C80.79 70.75 80.21 70.16 79.77 69.42H79.78ZM82.05 74.12C83 75.15 84.1 77.24 84.07 77.93C82.84 76.84 82.26 75.56 82.05 74.12ZM71.87 116.32C72.59 114.25 73.33 112.17 74.63 110.32C73.98 112.42 73.2 114.47 71.87 116.32ZM79.61 101.35C81.11 97.94 81.95 94.34 83.67 91.02C82.61 94.56 82.11 98.28 79.61 101.35ZM108.3 18.08C107.95 18.87 107.39 19.26 106.69 19.34C106.28 19.7 106.56 20.55 105.6 20.36C105.56 19.7 105.53 19.06 105.48 18.35C106.43 17.81 107.32 18 108.3 18.08ZM106.39 15.95C106.47 16.51 106.53 16.97 106.61 17.53C106.2 17.49 105.83 17.46 105.45 17.42C105.61 16.72 105.413 16.2233 104.86 15.93C104.86 15.93 104.78 15.86 104.75 15.82C105.3 15.86 105.85 15.91 106.39 15.95ZM101.37 16.64C101.66 16.3 102 16.11 102.43 16.37C103.18 16.81 103.93 17.26 104.62 17.76C104.85 17.93 105.03 18.3 105.01 18.56C104.94 19.34 104.75 20.11 104.56 21.14C103.25 19.99 102.12 19.02 101.02 18.02C100.68 17.71 100.85 17.23 101.37 16.64ZM100.68 19.34C101.59 19.8 102.63 20.15 102.64 21.4C102.83 21.48 103.04 21.56 103.23 21.66C103.44 21.77 103.64 21.91 103.87 22.06C102.87 23.48 101.99 24.87 100.49 25.89C101.03 23.69 100.59 21.51 100.69 19.34H100.68ZM95.8 72.28C97.24 70.1 99.19 68.37 101.37 66.85C99.79 68.9 97.95 70.73 95.8 72.28ZM108.2 61.27C108.98 60.27 109.76 59.27 110.65 58.12C110.49 59.39 109.33 60.92 108.2 61.27ZM111.21 56.28C109.91 57.96 108.62 59.66 107.35 61.36C106.13 62.98 104.52 64.22 102.72 65.2C101.16 66.05 99.75 67.04 98.56 68.28C96.67 70.25 94.88 72.3 93.04 74.3C92.67 74.7 92.33 75.23 91.86 75.41C90.7 75.85 89.92 76.58 89.29 77.54C89.1 77.82 88.89 78.21 88.31 78.15C88.37 77.47 88.79 77.02 89.18 76.56C89.43 76.26 89.72 75.96 89.88 75.61C90.52 74.19 91.15 72.77 91.72 71.32C92.42 69.51 93.1 67.7 94.14 66.01C94.5 65.42 94.74 64.72 94.86 64.04C95.6 59.92 96.46 55.83 97.72 51.79C98.61 48.94 99.32 46.05 99.53 43.08C99.58 42.47 99.58 41.85 99.6 41.24C99.28 42.1 99.17 42.95 99.03 43.81C98.79 45.22 98.56 46.63 98.29 48.03C98.2 48.5 98.15 49.02 97.61 49.47C97.58 49.21 97.54 49.08 97.56 48.95C97.74 47.89 97.89 46.82 98.11 45.76C99.03 41.41 99.59 37.04 99.79 32.63C99.87 30.89 99.98 29.17 100.5 27.47C100.7 26.84 100.96 26.3 101.51 25.88C102.34 25.24 103 24.48 103.52 23.62C103.76 23.23 104.09 22.89 104.44 22.44C105.45 23.4 105.85 24.46 105.8 25.56C105.77 26.41 105.78 27.12 106.45 27.74C106.62 27.9 106.66 28.17 106.78 28.38C107.34 29.35 107.86 30.33 108.47 31.27C108.92 31.98 109.48 32.63 110.02 33.28C110.47 33.82 110.68 34.4 110.66 35.1C110.61 36.8 110.62 38.5 110.62 40.19C110.62 40.54 110.64 40.89 110.69 41.23C110.95 42.95 111.3 44.66 111.48 46.39C111.73 48.8 111.83 51.22 112.04 53.63C112.12 54.61 111.85 55.47 111.23 56.28H111.21ZM124.3 35.45C125.09 35.85 125.86 36.19 126.56 36.62C127.08 36.94 127.11 37.37 126.7 37.64C126.01 38.09 125.28 38.49 124.57 38.92C124.4 38.56 124.24 38.22 124.09 37.88C124.34 37.7 124.57 37.53 124.78 37.37C124.72 36.7 123.83 36.3 124.31 35.44L124.3 35.45ZM119.32 38.05C118.01 37.58 118.04 37.39 118.93 36.42C119.77 35.51 120.85 35.25 121.96 34.97C122.67 34.79 122.97 35.02 123.06 35.74C123.13 36.34 123.16 36.94 123.21 37.55C122.81 37.46 122.51 37.39 122.22 37.33C122.91 38.17 123.58 38.99 124.3 39.86C124.42 39.85 124.65 39.82 124.94 39.8C124.67 40.6 123.96 40.6 123.37 40.76C122.52 40.98 121.83 40.67 121.65 39.92C121.54 39.47 121.34 39.11 121.04 38.75C120.74 38.39 120.59 37.93 120.35 37.45C119.95 37.69 119.64 37.88 119.34 38.06L119.32 38.05ZM124.11 47.24C122.07 48.75 119.99 50.21 117.9 51.65C117.54 51.9 117.01 51.94 116.55 52.05C116.11 52.16 115.59 52.09 115.31 52.56L114.7 52.72C114.93 52.19 115.05 51.77 115.29 51.4C116.2 49.99 117.09 48.56 118.12 47.22C118.76 46.38 119.64 45.68 120.44 44.94C120.61 44.78 120.9 44.64 121.13 44.64C121.89 44.64 122.38 44.28 122.72 43.65C123.91 44 125.11 44.11 126.06 44.85C125.58 45.82 124.94 46.61 124.11 47.22V47.24ZM132.35 43.18C132.37 43.63 132.16 43.98 131.75 44.06C131.45 44.12 131.03 43.96 130.77 43.78C130.43 43.54 130.2 43.18 129.83 42.77C129.5 43.06 129.25 43.31 128.98 43.52C128.73 43.71 128.46 43.93 128.17 44.03C127.9 44.12 127.67 43.98 127.7 43.66C127.95 43.45 128.2 43.24 128.65 42.86C127.67 42.82 126.99 42.79 126.29 42.76C126.11 43.18 125.94 43.55 125.78 43.93C125.09 43.73 124.49 43.56 123.88 43.38C123.3 43.21 122.65 43.19 122.12 42.73C122.8 42.22 123.47 42.62 124.05 42.46C124.63 42.3 125.39 42.38 125.81 41.7C125.38 41.56 125.05 41.46 124.62 41.32C125.09 40.54 125.51 39.84 125.94 39.13C126.873 39.7033 127.07 40.5 126.53 41.52C126.85 41.79 127.1 41.71 127.38 41.42C128.26 40.49 127.55 39.76 127.05 39C127.27 38.71 127.46 38.45 127.65 38.2C128.1 37.62 128.32 37.57 128.93 37.96C129.76 38.49 130.36 39.15 130.41 40.14C130.08 40.39 129.93 40.68 130.04 41.1C130.19 41.65 130.26 42.22 130.38 42.88C130.69 42.95 131.1 43.05 131.58 43.16C131.67 42.4 130.76 41.93 131.26 41.19C132.21 41.61 132.32 42.37 132.36 43.18H132.35ZM140.06 36.67C139.84 36.51 139.61 36.35 139.32 36.13C139.09 36.42 138.9 36.66 138.75 36.84C139.02 37.26 139.22 37.58 139.46 37.94C138.84 38.17 138.48 38.18 138.46 37.6C138.46 37.53 138.4 37.46 138.36 37.37C138.14 37.53 137.96 37.66 137.66 37.88C137.41 37.56 137.23 37.3 137.02 37.07C136.89 36.93 136.7 36.72 136.54 36.73C135.85 36.76 135.73 36.32 135.66 35.87C135.57 35.34 135.55 34.79 135.5 34.26C134.32 34.11 133.83 33.75 133.82 33.07C133.82 32.58 134.75 31.47 135.3 31.31C135.84 31.16 136.63 31.54 137.01 32.23C136.17 32.53 135.35 32.82 134.53 33.11C134.56 33.19 134.58 33.27 134.61 33.36C135.29 33.22 135.97 33.11 136.65 32.95C138.21 32.58 139.09 32.99 139.57 34.4C139.8 35.08 139.96 35.79 140.14 36.49C140.15 36.54 140.1 36.6 140.08 36.67H140.06Z" fill="#706F6F"/>
<path d="M95.19 58.61C95 60.2 94.72 61.77 94.41 63.34C94.3 63.92 94.12 64.49 93.94 65.06C93.85 65.36 93.69 65.65 93.56 65.94C92.71 67.84 91.86 69.74 91 71.64C90.89 71.88 90.75 72.1 90.62 72.34C90.59 72.33 90.56 72.31 90.52 72.3C92.07 67.74 93.63 63.19 95.18 58.63L95.19 58.61Z" fill="#706F6F"/>
<path d="M53.25 44.66C53.17 44.06 53.1 43.46 53.02 42.86C53.18 43.45 53.53 44 53.25 44.66Z" fill="#706F6F"/>
<path d="M54.09 43.28C54.28 43.55 54.46 43.81 54.65 44.08C54.57 44.12 54.5 44.16 54.42 44.19C54.11 43.97 53.88 43.72 54.09 43.28Z" fill="#706F6F"/>
<path d="M64.68 27.53C64.7 27.26 64.73 26.99 64.77 26.72C64.8 26.48 64.86 26.25 64.91 26.01C65.67 26.15 65.83 26.36 65.45 26.88C65.26 27.14 64.95 27.32 64.69 27.53H64.68Z" fill="#706F6F"/>
<path d="M64.1 26.53C64.15 26.07 64.2 25.7 64.24 25.34L64.44 25.28C64.59 25.51 64.74 25.75 64.88 25.99C64.65 26.15 64.42 26.31 64.1 26.54V26.53Z" fill="#706F6F"/>
<path d="M71.79 22.14C72.13 21.63 72.47 21.11 72.93 20.42C73.05 20.74 73.23 20.96 73.17 21.09C72.92 21.65 72.49 22.05 71.79 22.14Z" fill="#706F6F"/>
<path d="M79.84 12.77C79.84 12.77 79.82 12.95 79.8 13.11C79.5 13.11 79.22 13.1 78.94 13.09C78.53 12.67 77.68 12.82 77.32 12C78.34 12.06 79.06 12.51 79.84 12.76V12.77Z" fill="#706F6F"/>
<path d="M114.33 10.58C113.88 10.59 113.4 10.6 113.08 10.4C112.64 10.13 112.32 9.70998 111.94 9.34998C111.98 9.14998 112.02 8.93998 112.1 8.53998C112.53 9.02998 112.77 9.43998 113.13 9.69998C113.52 9.97998 114.13 10.01 114.33 10.59V10.58Z" fill="#706F6F"/>
<path d="M126.79 44.11C126.5 43.7 126.69 43.43 126.97 43.38C127.17 43.34 127.42 43.55 127.66 43.66C127.37 43.81 127.08 43.96 126.79 44.11Z" fill="#706F6F"/>
<path d="M113.93 54.16C114.22 53.42 114.68 52.96 115.27 52.59C115.64 52.54 116.02 52.49 116.51 52.43C115.8 53.3 115.09 53.9 113.93 54.16Z" fill="#706F6F"/>
<path d="M104.64 15.78C104.28 15.73 103.92 15.68 103.55 15.63C103.57 15.56 103.6 15.49 103.62 15.43C104.01 15.41 104.39 15.42 104.64 15.78Z" fill="#706F6F"/>
<path d="M123.88 30.49C124.16 29.68 123.99 29.39 122.9 28.72C122.58 28.08 122.04 27.64 121.38 27.33C121.01 27.16 121 27.17 120.27 27.57C121.23 27.95 121.79 28.81 122.92 28.68C123.05 29.36 123.43 29.91 123.89 30.49H123.88Z" fill="#706F6F"/>
<path d="M80.36 4.60999C80.75 4.43999 80.83 4.14999 80.67 3.83999C80.51 3.52999 80.29 3.24999 80.07 2.97999C79.66 2.45999 79.15 2.27999 78.75 2.50999C78.37 2.72999 78.17 3.34999 78.33 3.82999C78.56 4.53999 79.62 4.94999 80.36 4.61999V4.60999Z" fill="#706F6F"/>
<path d="M61.04 38.41C60.96 38.45 60.88 38.49 60.8 38.53C62.06 40.68 63.33 42.83 64.59 44.98C63.62 42.69 62.38 40.52 61.03 38.41H61.04Z" fill="#706F6F"/>
<path d="M83.09 2.74999C82.91 2.37999 82.72 1.98999 82.44 1.67999C82.21 1.42999 81.85 1.27999 81.41 0.98999C81.36 1.81999 81.82 2.17999 82.21 2.55999C82.64 2.97999 82.88 3.38999 82.31 3.94999C83.42 3.60999 83.47 3.52999 83.09 2.73999V2.74999Z" fill="#706F6F"/>
<path d="M51.27 31.02C51.58 31.35 51.96 31.61 52.07 32.09C52.09 32.19 52.44 32.29 52.62 32.27C52.73 32.26 52.92 31.95 52.88 31.87C52.58 31.28 52.24 30.71 51.89 30.15C51.84 30.07 51.63 30.07 51.56 30.05C51.09 30.18 50.95 30.68 51.27 31.03V31.02Z" fill="#706F6F"/>
<path d="M139.24 32.83C139.56 32.06 139.26 31.6 138.01 31.05C137.84 32.2 138.11 32.56 139.24 32.83Z" fill="#706F6F"/>
<path d="M121.94 13.11C122 13.69 122.08 14.2 123.04 14.2C122.94 13.87 122.81 13.59 122.8 13.31C122.79 13.02 122.88 12.72 122.95 12.35C121.88 12.22 121.86 12.25 121.95 13.11H121.94Z" fill="#706F6F"/>
<path d="M109.17 19.11C109.4 18.91 109.41 18.6 108.98 18.39C108.3 18.83 107.76 19.41 107.22 20.28C108.29 20.21 108.65 19.54 109.17 19.11Z" fill="#706F6F"/>
<path d="M81.3 7.91C81.66 7.6 81.58 7.3 81.27 7.03C80.86 6.66 80.4 6.69 79.6 7.13C80.06 7.55 80.6233 7.81 81.29 7.91H81.3Z" fill="#706F6F"/>
<path d="M86.36 82.97C86.4 82.81 86.16 82.59 85.98 82.27C85.4 83.15 85.31 83.96 85.24 84.96C85.99 84.33 86.21 83.65 86.36 82.96V82.97Z" fill="#706F6F"/>
<path d="M49.57 32.49C49.96 32.69 50.26 32.84 50.59 33.01C50.98 32.39 51.29 31.87 50.6 31.12C50.22 31.62 49.93 32.01 49.56 32.49H49.57Z" fill="#706F6F"/>
<path d="M117.97 14.6C118.51 14.22 118.84 13.84 118.78 13.21C117.89 12.99 117.66 13.93 116.98 14.03C116.98 14.1 116.99 14.18 117 14.25C117.33 14.37 117.66 14.49 117.97 14.6Z" fill="#706F6F"/>
<path d="M69.35 51.34C69.36 49.93 69.17 49.61 67.99 49.1L69.35 51.34Z" fill="#706F6F"/>
<path d="M92.35 43.38C92.28 43.43 92.21 43.48 92.15 43.53C92.61 44.38 93.28 45.08 94.05 45.71C94.12 45.65 94.19 45.58 94.26 45.52C93.62 44.81 92.99 44.09 92.35 43.38Z" fill="#706F6F"/>
<path d="M76.04 8.59998C75.62 8.66998 75.33 8.62997 75.23 8.73997C74.81 9.16997 74.67 9.65998 75.1 10.38C75.43 9.74998 75.68 9.27998 76.05 8.59998H76.04Z" fill="#706F6F"/>
<path d="M107.22 15.59C106.98 16.31 107.37 16.66 107.52 17.21C107.88 17.06 108.15 16.95 108.68 16.72C108.07 16.25 107.71 15.97 107.22 15.59Z" fill="#706F6F"/>
<path d="M92.12 1.41998C92 1.66998 91.9 1.87998 91.77 2.15998C92.25 2.29998 92.69 2.41998 93.19 2.55998C93.36 1.70998 92.69 1.65998 92.12 1.42998V1.41998Z" fill="#706F6F"/>
<path d="M62.89 27.42C62.9 27 62.91 26.62 62.93 26C61.87 26.95 61.88 27.15 62.89 27.42Z" fill="#706F6F"/>
<path d="M80.96 2.07999C81.07 2.90999 81.14 2.99999 82.03 3.43999C81.96 2.69999 81.49 2.42999 80.96 2.07999Z" fill="#706F6F"/>
<path d="M47.56 33.67C47.86 34.37 47.94 34.41 48.92 34.25C48.55 33.71 48.12 33.59 47.56 33.67Z" fill="#706F6F"/>
<path d="M60.75 17.23C60.94 16.62 60.83 16.38 59.84 15.66C60.14 16.18 60.44 16.7 60.75 17.23Z" fill="#706F6F"/>
<path d="M78.43 1.48997C79.0167 1.30331 79.2167 0.933308 79.03 0.379974C78.86 0.699974 78.68 1.02997 78.43 1.48997Z" fill="#706F6F"/>
<path d="M122.24 43.76C121.84 43.42 121.493 43.6067 121.2 44.32C121.54 44.14 121.88 43.95 122.24 43.76Z" fill="#706F6F"/>
<path d="M104.34 16.39C104.25 16.39 104.08 16.57 104.09 16.65C104.12 17.08 104.47 17.13 104.89 17.17C104.99 16.61 104.78 16.39 104.34 16.39Z" fill="#706F6F"/>
<path d="M122.06 10.24C122.16 10.7867 122.583 11.01 123.33 10.91C122.82 10.64 122.48 10.46 122.06 10.24Z" fill="#706F6F"/>
<path d="M114.76 9.14998C114.71 9.60998 114.74 9.92998 115.08 10.11C115.2 10.17 115.45 10.03 115.87 9.90998C115.39 9.56998 115.13 9.39998 114.76 9.13998V9.14998Z" fill="#706F6F"/>
<path d="M98.99 7.62999C99.73 7.44999 99.8 7.31999 99.65 6.35999C99.38 6.87999 99.2 7.21999 98.99 7.62999Z" fill="#706F6F"/>
<path d="M99.26 15.94C99.86 15.32 99.58 14.91 99.43 14.49C99.35 14.5 99.26 14.52 99.18 14.53C99.21 14.95 99.23 15.37 99.27 15.95L99.26 15.94Z" fill="#706F6F"/>
<path d="M84.54 29.47C84.14 29.71 83.83 29.9 83.53 30.09C83.94 30.04 84.54 30.23 84.54 29.47Z" fill="#706F6F"/>
<path d="M69.03 48.1C68.97 48.12 68.9 48.13 68.84 48.15C68.89 48.38 68.94 48.6 68.98 48.83C69.06 48.81 69.14 48.79 69.22 48.76C69.16 48.54 69.09 48.32 69.03 48.11V48.1Z" fill="#706F6F"/>
<path d="M66.75 37.48C66.75 37.48 66.95 37.64 66.96 37.64C67.11 37.5 67.24 37.35 67.38 37.2C67.28 37.14 67.18 37.07 67.08 37.01C66.97 37.17 66.84 37.32 66.75 37.49V37.48Z" fill="#706F6F"/>
<path d="M86.39 33.14C86.34 33.73 86.66 33.75 86.98 33.77C87.02 33.7 87.07 33.64 87.11 33.57C86.91 33.45 86.71 33.33 86.4 33.14H86.39Z" fill="#706F6F"/>
<path d="M93.93 3.08999L93.78 3.04999C93.69 3.31999 93.61 3.57999 93.52 3.84999C93.57 3.85999 93.62 3.87999 93.68 3.88999C93.76 3.61999 93.85 3.34999 93.93 3.08999Z" fill="#706F6F"/>
<path d="M133.24 44.2C133.3 44.13 133.27 43.98 133.27 43.86C133.17 43.86 133.04 43.84 132.98 43.89C132.89 43.97 132.85 44.1 132.7 44.36C133 44.28 133.17 44.28 133.24 44.2Z" fill="#706F6F"/>
<path d="M121.64 41.93C121.63 41.85 121.46 41.78 121.36 41.71C121.28 41.81 121.15 41.91 121.15 42.01C121.15 42.1 121.29 42.18 121.42 42.34C121.53 42.14 121.65 42.03 121.64 41.93Z" fill="#706F6F"/>
<path d="M52.07 32.76C52.03 32.82 51.99 32.88 51.96 32.94C52.15 33.04 52.33 33.15 52.52 33.25C52.56 33.18 52.61 33.12 52.65 33.05C52.46 32.95 52.27 32.86 52.08 32.76H52.07Z" fill="#706F6F"/>
<path d="M41.55 18.99C41.77 19.4 42.09 19.27 42.21 18.99C42.44 18.45 42.62 17.88 42.69 17.32C42.81 16.49 42.46 15.65 42.81 14.81C42.87 14.67 42.73 14.42 42.59 14.29C42.2 13.91 41.74 13.89 41.32 14.2C40.54 14.78 40.5 14.93 40.9 15.6V15.57C40.02 16.11 39.01 16.33 38 16.57C37.16 16.78 36.79 16.67 36.27 15.97C36.71 15.97 37.13 15.97 37.77 15.97C36.91 15.2 37.4 14.68 37.88 14.15C38.62 14.27 38.83 14.14 39.19 13.24C38.82 13.27 38.42 13.19 38.2 13.34C37.71 13.68 37.24 13.69 36.71 13.56C36.21 13.44 35.91 13.6 35.82 14.08C35.78 14.28 35.72 14.48 35.68 14.66C34.76 14.89 34.49 15.08 33.97 15.8C33.37 16.64 33.57 17.08 34.75 17.41C34.87 16.92 34.99 16.43 35.13 15.87C35.72 16.76 35.7 16.88 34.84 17.74C34.1 17.8 33.66 17.4 33.21 16.97C32.87 16.64 32.83 16.29 33.14 15.95C33.58 15.47 34.04 15 34.56 14.6C34.89 14.34 35.13 14.11 35.26 13.71C35.53 12.88 35.87 12.67 36.76 12.84C37.26 12.93 37.68 12.86 38.17 12.74C38.87 12.58 39.65 12.51 40.31 13.01C39.78 13.91 39.27 14.78 38.76 15.65C39.69 15.45 40.39 15.14 40.67 14.29C40.96 13.41 41.12 13.38 42.04 13.72C42.36 13.84 42.67 14.06 43.15 13.74C42.4 13.26 41.73 12.82 40.97 12.33C42.13 12.06 42.79 12.87 43.63 13.03C44.2 12.45 43.33 12.29 43.28 11.78C43.67 11.89 43.97 11.93 44.21 12.06C44.74 12.34 44.79 12.68 44.49 13.19C44.06 13.9 43.67 14.63 43.26 15.35C43.99 15.64 44.62 15.89 45.35 16.18C45.1 16.78 44.59 17.19 44.14 17.63C44 17.77 43.75 17.96 43.78 18.08C43.89 18.5 43.61 18.72 43.39 19C43.04 19.45 42.73 19.92 42.39 20.39C42.65 20.79 42.89 21.13 43.11 21.49C43.32 21.84 43.5 22.2 43.72 22.6C43.94 22.44 44.08 22.37 44.16 22.27C44.88 21.4 45.84 21.39 46.82 21.61C48.99 22.08 49.92 23.77 49.14 25.72C49.04 25.98 48.88 26.24 48.84 26.51C48.75 27.05 48.37 27.17 47.87 27.19C46.42 27.24 45.13 26.85 44 26.05C43.76 25.88 43.51 25.56 43.5 25.3C43.45 24.23 43.35 23.2 42.61 22.33C42.59 22.31 42.6 22.26 42.58 22.23C42.21 21.38 41.78 20.62 40.59 20.52C40.19 20.49 39.8 20.17 39.47 19.92C39.23 19.73 39.21 19.44 39.6 19.2C39.96 19.37 40.34 19.54 40.87 19.79C39.79 18.6167 39.4333 17.8 39.8 17.34C39.91 18.38 40.92 18.49 41.57 18.97C41.57 18.97 41.55 18.96 41.56 18.97L41.55 18.99ZM47.04 25.63C47.18 25.07 47.52 24.52 47.35 24.19C47.03 23.56 46.49 23.01 45.93 22.53C45.46 22.12 44.71 22.33 44.47 22.96C44.17 23.78 44 24.65 44.31 25.49C44.37 25.66 44.63 25.78 45.01 25.82C44.9 25.27 44.78 24.73 44.66 24.17C45.24 24 45.41 24.37 45.44 24.69C45.56 25.79 46.25 26.18 47.37 26.13C47.55 26.13 47.74 26.18 47.92 26.19C47.95 26.19 47.98 26.15 48.15 26.02C47.71 25.87 47.34 25.74 47.03 25.63H47.04Z" fill="#706F6F"/>
<path d="M43.18 16.28C43.13 16.33 43.08 16.39 43.02 16.44C43.18 16.66 43.29 16.96 43.51 17.07C43.63 17.13 43.94 16.87 44.17 16.75C44.14 16.65 44.11 16.55 44.08 16.45L43.17 16.28H43.18Z" fill="#706F6F"/>
<path d="M53.53 29.46C52.32 28.48 51.11 27.51 49.88 26.51C50.37 26.04 50.75 26.27 51.12 26.52C51.6 26.86 52.08 27.2 52.56 27.53C52.63 27.49 52.7 27.44 52.77 27.4C52.71 27.04 52.65 26.68 52.58 26.32C52.46 25.68 52.19 25.02 52.27 24.39C52.35 23.75 52.07 23.54 51.6 23.27C51 22.93 50.4 22.57 49.9 22.13C49.64 21.9 49.47 21.48 49.46 21.13C49.42 20.43 50.01 19.79 50.87 19.53C51.79 19.26 52.88 18.99 53.49 19.77C54.27 20.77 54.8 21.99 54.11 23.28C53.42 24.59 53.37 25.86 53.95 27.17C54.57 28.58 55.21 29.97 56.73 30.78C56.88 30.86 56.99 30.98 57.12 31.08C57.09 31.12 57.07 31.16 57.04 31.2C56.74 31.07 56.43 30.94 56.13 30.81C56.08 30.86 56.04 30.91 55.99 30.96C56.41 31.35 56.83 31.74 57.26 32.13C55.68 31.63 54.73 30.42 53.55 29.47L53.53 29.46ZM51.78 20.15C51.2 19.95 50.45 20.23 50.14 20.75C49.95 21.07 49.99 21.37 50.33 21.55C51.15 21.99 51.99 22.4 52.91 22.86C53.43 21.42 53.03 20.57 51.77 20.15H51.78ZM53.04 24.29C52.99 24.3 52.93 24.32 52.88 24.33L53.03 24.85C53.08 24.84 53.14 24.82 53.19 24.81C53.14 24.64 53.09 24.46 53.04 24.29Z" fill="#706F6F"/>
<path d="M115.35 5.39998C115.27 5.12998 115.19 4.84998 115.11 4.57998L115.09 4.59998C115.52 4.63998 115.95 4.67998 116.41 4.71998C116.53 3.89998 115.65 4.02998 115.31 3.57998C115.55 3.47998 115.78 3.28998 115.91 3.32998C116.81 3.63998 117.59 3.10998 118.42 3.02998C118.81 2.98998 119.25 2.91998 119.59 3.03998C120.23 3.25998 120.82 3.59998 121.73 4.02998C121.86 3.64998 122 3.25998 122.15 2.82998C122.56 2.88998 122.91 2.92998 123.27 2.97998C124.07 2.25998 124.66 2.19998 125.69 2.69998C126.86 3.26998 127.39 4.26998 127.12 5.58998C126.69 5.43998 126.28 5.30998 125.89 5.13998C125.56 4.98998 125.13 4.80998 125.36 4.38998C125.6 3.94998 125.94 4.40998 126.24 4.37998C126.3 4.37998 126.36 4.30998 126.47 4.23998C125.91 3.86998 125.39 3.48998 124.84 3.14998C124.24 2.77998 123.97 2.91998 123.92 3.57998C123.91 3.73998 123.92 3.88998 123.92 4.03998C123.33 4.10998 122.82 3.32998 122.28 4.05998C122.7 4.45998 123.33 4.62998 123.43 5.27998C122.85 5.13998 122.6 4.34998 121.76 4.82998C122.08 5.09998 122.31 5.43998 122.62 5.52998C123.54 5.78998 124.15 6.30998 124.56 7.08998C124.62 7.19998 124.77 7.25998 124.9 7.35998C125.19 7.11998 125.43 6.90998 125.68 6.69998C126.14 6.31998 126.96 6.23998 127.43 6.52998C127.94 6.84998 127.86 7.27998 127.67 7.72998C127.58 7.94998 127.48 8.15998 127.37 8.42998C126.98 8.35998 126.62 8.36998 126.34 8.23998C125.77 7.96998 125.32 7.93998 124.84 8.43998C124.48 8.81998 124.03 8.81998 123.48 8.42998C123.88 8.17998 124.2 7.97998 124.65 7.69998C123.66 7.55998 123.26 6.87998 122.72 6.34998C122.24 5.88998 121.9 5.28998 121.14 5.11998C121.02 5.08998 120.9 4.94998 120.84 4.82998C120.46 4.02998 119.58 3.82998 118.83 3.38998C118.69 3.66998 118.57 3.90998 118.47 4.11998C118.07 4.07998 117.75 4.04998 117.44 4.01998C117.133 4.76665 116.53 5.19998 115.63 5.31998C115.52 5.32998 115.41 5.35998 115.3 5.38998L115.33 5.40998L115.35 5.39998ZM126.16 6.76998C125.96 7.03998 125.81 7.24998 125.63 7.48998C126.2 7.79998 126.67 7.96998 127.28 7.39998C126.87 7.16998 126.55 6.98998 126.16 6.76998Z" fill="#706F6F"/>
<path d="M36.45 19.49C36.46 19.14 36.45 18.78 36.49 18.43C36.52 18.11 36.59 17.78 36.67 17.24C36.06 17.61 35.79 17.85 35.79 18.33C35.79 18.73 35.68 19.14 35.61 19.54C35.89 20 36.17 20.45 36.44 20.91C36.98 19.68 38.48 19.12 38.66 17.87C38.58 17.82 38.5 17.77 38.42 17.72C37.88 18.34 37.35 18.97 36.81 19.59C36.69 19.56 36.56 19.53 36.44 19.5L36.45 19.49Z" fill="#706F6F"/>
<path d="M81.83 32.44C81.19 31.94 80.9 31.92 80.58 32.44C80.31 32.88 80.12 33.39 79.99 33.88C79.89 34.24 79.9 34.72 80.37 34.83C80.64 34.89 81 34.64 81.3 34.33C81.09 34.26 80.88 34.2 80.67 34.13C80.6233 33.65 81.0133 33.0866 81.84 32.44H81.83Z" fill="#706F6F"/>
<path d="M99.05 17.28C99 19.23 98.75 21.18 99.11 23.11L99.07 23.09C99.14 22.27 99.17 21.45 99.3 20.64C99.47 19.49 99.39 18.38 99.02 17.28H99.05Z" fill="#706F6F"/>
<path d="M118.4 40.97C118.62 40.63 118.79 40.37 118.99 40.07C118.62 39.68 118.28 39.31 117.93 38.94C117.57 39.73 117.69 40.28 118.4 40.97Z" fill="#706F6F"/>
<path d="M112.96 44.77C112.85 45.56 112.75 46.35 112.64 47.14C113.26 46.39 113.25 45.59 112.96 44.77Z" fill="#706F6F"/>
<path d="M41.81 17.91C42.29 17.18 42.26 17.12 41.01 16.72C41.33 17.19 41.58 17.56 41.84 17.93H41.81V17.91Z" fill="#706F6F"/>
<path d="M41.14 18.42C40.98 17.86 40.81 17.3 40.64 16.7C40.32 17.59 40.42 17.89 41.16 18.4L41.15 18.42H41.14Z" fill="#706F6F"/>
<path d="M40.91 15.57C41.31 15.84 41.7 16.1 42.1 16.37C41.88 15.9167 41.48 15.6567 40.9 15.59L40.91 15.56V15.57Z" fill="#706F6F"/>
<path d="M41.84 17.92C41.61 18.08 41.38 18.25 41.14 18.42L41.15 18.4C41.28 18.6 41.42 18.8 41.55 18.99C41.61 18.88 41.63 18.74 41.72 18.67C42.03 18.43 42.04 18.19 41.81 17.91L41.84 17.92Z" fill="#706F6F"/>
<path d="M69.27 17.21C69.17 16.62 68.77 16.55 67.99 16.73C68.55 16.93 68.91 17.06 69.27 17.19V17.21Z" fill="#706F6F"/>
<g style="mix-blend-mode:multiply">
<path d="M105.11 17.59C103.56 17.52 102.41 15.84 103 14.5C103.36 13.69 104.2 13.11 105.11 12.84C106.02 12.57 106.98 12.56 107.92 12.61C108.68 12.65 109.47 12.73 110.09 13.12C110.71 13.51 111.09 14.31 110.74 14.93C110.51 15.34 110.05 15.59 109.62 15.81C109.11 16.07 108.6 16.33 108.09 16.59C107.33 16.98 106.54 17.37 105.68 17.38C104.82 17.39 103.91 16.88 103.84 16.09" fill="#CCE8F3"/>
</g>
<g style="mix-blend-mode:multiply">
<path d="M35.22 15.58C35.73 14.4 36.97 13.51 38.33 13.34C38.37 14.48 38.2 15.63 37.83 16.73C39.45 16.57 41.02 15.97 42.31 15.03C42.64 15.79 42.9799 16.63 42.7299 17.43C42.4799 18.23 41.34 18.84 40.65 18.33C40.34 18.1 40.1699 17.71 39.7999 17.6C39.2699 17.45 38.7899 17.96 38.5299 18.43C38.2699 18.89 37.95 19.45 37.38 19.48C37.31 18.87 37.22 18.2 36.74 17.77C36.11 17.2 35.08 17.29 34.2 17.42C34.33 16.59 34.84 15.81 35.57 15.31" fill="#CCE8F3"/>
</g>
<g style="mix-blend-mode:multiply">
<path d="M134.42 33.69C134.06 33.38 134.08 32.81 134.36 32.43C134.64 32.05 135.12 31.82 135.6 31.68C136.74 31.34 138.03 31.39 139.03 31.96C140.03 32.53 140.66 33.66 140.44 34.73C140.28 35.48 139.74 36.16 139.7 36.93C139.69 37.15 139.72 37.39 139.59 37.57C139.5 37.7 139.34 37.78 139.19 37.85C138.23 38.28 137.08 38.42 136.09 38.08C135.1 37.75 134.3 36.91 134.21 35.94C134.11 34.95 134.7 33.93 134.36 32.99" fill="#CCE8F3"/>
</g>
<g style="mix-blend-mode:multiply">
<path d="M124.46 6.83998L122.9 5.82998C122.63 5.64998 122.33 5.44998 122.25 5.14998C122.2 4.97998 122.24 4.78998 122.3 4.61998C122.76 3.41998 124.53 3.08998 125.82 3.48998C127.21 3.92998 128.41 5.18998 128.14 6.53998C127.91 7.67998 126.6 8.52998 125.36 8.40998C124.12 8.28998 123.09 7.29998 122.92 6.15998" fill="#CCE8F3"/>
</g>
</g>
<defs>
<clipPath id="clip0_615_2">
<rect width="143.26" height="220.62" fill="white"/>
</clipPath>
</defs>
</svg>
